<svg xmlns="http://www.w3.org/2000/svg" xml:space="preserve" fill-rule="evenodd" stroke-linejoin="round" stroke-miterlimit="2" clip-rule="evenodd" viewBox="0 0 256 256">
  <path fill-rule="nonzero" d="m140.55 155.44 33.9 83.34h22.35l-40.37-99.57c-1.35-3.23-2.69-5.67-4.2-7.4a11.97 11.97 0 0 0-5.5-3.64 20.97 20.97 0 0 0-6.52-1.09c-6.73-.05-11.9 4.46-14.93 12.13l-40.45 99.57h22.26l33.46-83.34m35.6-110.27c.7 16.06-10.5 29.6-25.04 30.23-14.52.64-26.86-11.87-27.57-27.93-.7-16.06 10.5-29.6 25.04-30.23 14.53-.63 26.87 11.87 27.57 27.93"/>
  <path fill-rule="nonzero" d="M0 49.3c70.55 63.85 195.18 92.6 256 34.16C171.33 101.5 90.19 93.86 0 49.29"/>
  <defs>
    <linearGradient id="rivalis">
      <stop offset="0%" stop-color="#0c4690"/>
      <stop offset="50%" stop-color="#167bc0"/>
      <stop offset="100%" stop-color="#0c4690"/>
    </linearGradient>
  </defs>
  <style>
    path{fill:url(#rivalis)}@media (prefers-color-scheme:dark){path{fill:#fff}}
  </style>
</svg>