<svg xmlns="http://www.w3.org/2000/svg" xml:space="preserve" fill-rule="evenodd" stroke-linejoin="round"
    stroke-miterlimit="2" clip-rule="evenodd" viewBox="0 0 417 163">
    <g fill="url(#rivalis)">
        <path
            d="M43.8 114.26a5.68 5.68 0 0 0-1.17.1H15.19v-19.6h27.9a7.52 7.52 0 0 1 1.06.09c3.21.52 4.58 1.8 5.2 4.62l.01.07.01.05c.02.02.08.46.08 1.1v8.57c-.02 1.48-.44 2.44-1.3 3.24-.84.79-2.27 1.42-4.35 1.76Zm3.1 14.01c2.8 0 5.56-.7 8.2-2.06a18.84 18.84 0 0 0 6.62-5.65 14.88 14.88 0 0 0 3.02-8.73V98.34c0-3.07-.58-5.75-1.8-8-1.24-2.29-3.3-4.35-6.12-6.28a21.63 21.63 0 0 0-11.73-3.21H0v80.51h15.19v-32.98l31.62 32.98h20.33l-31.88-33.09H46.9Zm34.6-47.42h15.2v80.5H81.5zm246.16 0h15.2v80.5h-15.2zm-156.66 0-.35.84-23.9 59.42-24.01-60.26H106.5l29.83 73.97c1.08 2.62 2.38 4.58 4.08 5.78 1.7 1.18 3.88 1.7 6.44 1.7 2.6 0 4.8-.52 6.52-1.7 1.74-1.2 3.02-3.17 4.02-5.8l29.81-73.95H171Zm50.65 19.81 24.68 60.7h16.28l-29.4-72.51a20.1 20.1 0 0 0-3.05-5.4 8.74 8.74 0 0 0-4.02-2.65 15.24 15.24 0 0 0-4.74-.79c-4.9-.04-8.68 3.25-10.87 8.84l-29.46 72.51h16.2l24.38-60.7Zm69.31 44.38c-2.64-2.66-4.06-6.76-4.06-12.56V80.62h-14.43v54.45c-.02 7.73 2.7 14.23 8.07 19.15 5.36 4.94 12.46 7.39 21.02 7.39h14.53v-12.47h-12.71c-5.73 0-9.78-1.43-12.42-4.1Zm113.57-24.16-.06-.04-.08-.04c-7.17-3.3-14.4-6.65-21.73-10.07-7.24-3.34-10.31-6.8-10.23-9.64.02-2.74.82-4.56 2.37-5.91 1.6-1.34 3.84-2.1 6.91-2.1h31.04V80.63h-29.4c-7.37 0-13.49 1.79-18.2 5.46-4.75 3.68-7.17 9.04-7.15 15.57-.02 7.17 4.26 13.27 12.15 18.02l.06.04.07.03 21.61 10.12c7.2 3.4 10.27 6.99 10.22 10.38-.03 3.11-1.02 5.1-3.09 6.59-2.09 1.47-5.5 2.32-10.23 2.32h-31.42v12.46h33.6c7.86 0 14.2-1.94 18.8-5.96 4.6-4 6.91-9.57 6.9-16.3.01-7.38-4.24-13.64-12.14-18.47ZM247.58 20.36c.5 11.7-7.65 21.55-18.24 22.01-10.57.46-19.57-8.64-20.08-20.34-.5-11.7 7.65-21.55 18.23-22.01 10.58-.47 19.57 8.64 20.09 20.34Z" />
        <path d="M119.29 23.36c51.38 46.5 142.14 67.44 186.44 24.88-61.67 13.14-120.76 7.58-186.44-24.88Z" />
    </g>
    <defs>
        <linearGradient id="rivalis">
            <stop offset="0%" stop-color="#0c4690" />
            <stop offset="50%" stop-color="#167bc0" />
            <stop offset="100%" stop-color="#0c4690" />
        </linearGradient>
    </defs>
</svg>