<svg fill="currentcolor" xmlns="http://www.w3.org/2000/svg" xml:space="preserve" fill-rule="evenodd" stroke-linejoin="round" stroke-miterlimit="2" clip-rule="evenodd" viewBox="0 0 1000 250">
  <path d="M315.78 73.31a6.85 6.85 0 0 1-5.22 12.66l-55.91-23.08 2.2-6.15a32.33 32.33 0 0 0 1.87-10.9c0-17.73-14.25-32.15-31.83-32.15-17.59 0-31.83 14.42-31.83 32.15 0 13.58 10.15 23.36 20.2 30.06 33.44 22.36 53.5 46.51 53.5 83.64 0 49.94-40.26 90.46-89.8 90.46-36 0-67.08-21.39-81.4-52.25A6.85 6.85 0 0 1 110 192c12.13 26.16 38.46 44.32 68.97 44.32 42.02 0 76.1-34.42 76.1-76.77 0-32.32-18.3-52.8-47.42-72.25-13.6-9.1-26.28-23.05-26.28-41.45C181.36 20.53 201.78 0 226.9 0s45.53 20.53 45.53 45.84c0 3.15-.32 6.22-.92 9.2l44.28 18.27ZM4.08 32.65A6.85 6.85 0 0 1 9.62 20.1l194.13 85.47a59.43 59.43 0 0 1 31.45 77.86 59.43 59.43 0 0 1-77.88 31.48 59.44 59.44 0 0 1-33.78-71.48l-89.5-38.97A6.85 6.85 0 0 1 39.5 91.9l101.6 44.24-2.66 6.24a45.73 45.73 0 0 0 24.23 59.93 45.73 45.73 0 0 0 59.92-24.23 45.74 45.74 0 0 0-24.27-59.94L4.1 32.65ZM19.4 68.7a6.85 6.85 0 0 1 5.43-12.57l140.45 60.62a6.85 6.85 0 0 1-5.42 12.57L19.4 68.71Z"/>
  <path d="m324.2 229.52-2.7 5.93H300l5.93-13.83L370.16 73.4l2.71-5.93h12.85l2.72 5.93 64.22 148.22 5.93 13.83H437.1l-2.72-5.93L379.3 102.3l-55.1 127.22Zm247.78-3.95.24 10.13h-19.51l-.25-9.88-.25-57.8c0-6.43-1.56-12.36-4.69-17.8-5.43-9.05-12.93-13.58-22.48-13.58a24.2 24.2 0 0 0-15.31 5.43c-7.9 6.26-11.86 14.9-11.86 25.94v67.44H478.1V116.88h19.76v9.38a45.26 45.26 0 0 1 27.17-9.38c11.04 0 20.83 3.79 29.4 11.36 11.69 10.05 17.54 23.3 17.54 39.77v57.56Zm29.64-49.4c0-15.49 4.86-28.9 14.57-40.27 10.7-12.68 23.97-19.02 39.78-19.02 12.84 0 24.37 4.53 34.58 13.58v-13.58h19.76v118.57h-19.76v-13.59c-10.05 8.9-21.57 13.43-34.58 13.59-13.34 0-25.12-4.77-35.33-14.33-12.68-11.69-19.02-26.68-19.02-44.96Zm19.76 0c0 8.72 2.39 16.71 7.17 23.96 6.91 10.37 16.05 15.56 27.42 15.56 7.74 0 14.65-2.64 20.75-7.9 9.22-8.08 13.83-18.62 13.83-31.63a42.7 42.7 0 0 0-7.16-23.96c-6.92-10.37-16.06-15.56-27.42-15.56-7.74 0-14.66 2.63-20.75 7.9-9.23 8.07-13.84 18.61-13.84 31.62Zm77.75-108.7h128.45v19.76h-54.1v148.22h-19.76V87.23h-54.6V67.47Zm138.32 59.78c8.73-6.75 19.27-10.2 31.62-10.37h9.89v19.76h-9.89a30 30 0 0 0-14.82 3.7c-11.03 6.1-16.63 17.54-16.8 34.34v60.77H817.7V116.88h19.76v10.37Zm138.34 73.12 15.81 11.86c-11.53 15.48-26.84 23.22-45.95 23.22-13.34 0-25.2-4.77-35.57-14.33-12.51-11.69-18.77-26.68-18.77-44.96 0-15.31 4.69-28.65 14.08-40.01 10.87-12.85 24.29-19.27 40.26-19.27 13.34 0 25.12 4.77 35.33 14.33 12.68 11.69 19.02 26.67 19.02 44.95v9.89h-87.94a42.9 42.9 0 0 0 5.92 13.83c6.92 10.54 16.14 15.8 27.67 15.8 12.19 0 22.24-5.1 30.14-15.3Zm-63.73-34.09h68.18c0-4.77-2.23-9.96-6.67-15.56-7.74-9.39-17.05-14.08-27.92-14.08-5.1 0-9.96 1.24-14.57 3.7-9.88 5.11-16.22 13.76-19.02 25.94Z"/>
</svg>
