<svg fill="currentcolor"  xmlns="http://www.w3.org/2000/svg" xml:space="preserve" fill-rule="evenodd" stroke-linejoin="round" stroke-miterlimit="2" clip-rule="evenodd" viewBox="0 0 966 237">
  <path fill-rule="nonzero" d="M15.38 235.53a169.5 169.5 0 0 1-3.37-8.28c-15.95-40.92-14.74-86.78 3.36-127.6C35.72 53.74 76.65 18.6 124.49 5.92c59.57-15.78 121.08.62 164.58 43.87a169.04 169.04 0 0 1 47.24 91.88c3.2 19.17 2.88 41.1-.85 60.37-1.85 9.57-8.41 31.07-10.1 33.1-.96 1.15-10.42 1.49-10.42.37 0-.37.89-2.98 1.97-5.82a163.38 163.38 0 0 0 2.04-111.59c-5.12-14.87-13.94-31.34-23.62-44.1-5.74-7.57-17.74-20.06-25.53-26.56-21.12-17.65-47.72-29.84-76.03-34.86-12.63-2.24-37.32-2.46-50.2-.44-56.5 8.83-104.95 47-125.87 99.16-9 22.45-12.21 41.13-11.56 67.04.5 19.42 2.92 33.21 8.78 49.82 1.25 3.52 2.26 6.76 2.26 7.2 0 .97-1.24 1.09-1.8.17Zm18.64-4.4c-4.65-10.5-9.6-27.17-9.18-30.86.22-1.93.51-2.03 13.73-4.66 8.78-1.76 13.95-2.47 14.8-2.04.72.36 1.5 1.57 1.75 2.7 2.2 10 7.14 22.8 11.97 31.05 4.63 7.9 5 7.7-14.46 7.93l-16.7.2-1.9-4.32Zm215.27-2.06a99.45 99.45 0 0 0 11.4-26.64c2.3-8.61 2.63-9.32 4.46-9.6 2.55-.38 44.63 8.62 45.81 9.8.99.98.89 1.97-.9 8.52-2.08 7.66-7.3 21.56-8.73 23.3-.65.77-6.53.98-28.43.98h-27.6l3.99-6.36ZM138.32 190.6c-3.3-2.09-6.38-6.9-6.37-9.96.03-9.35 14-23.34 41.48-41.54 22.1-14.62 60.51-35.6 76.22-41.63 6.89-2.64 6.76-2.66 9.1 1.6 1.11 2.02-6.46 10.83-26.65 31.02-31.2 31.2-56.9 51.4-75.4 59.25-6.51 2.76-15.08 3.34-18.38 1.26Zm149.42-4.32c-11.46-1.35-21.28-2.63-21.82-2.84-.73-.27-1.12-3.33-1.48-11.5-.5-11.55-1.6-18.52-4.37-27.86-1.39-4.7-1.47-5.62-.56-6.47 1.06-.99 43.51-18.43 44.86-18.43 1.46 0 5.61 13.23 8.4 26.76 1.87 9.06 2.94 38.66 1.5 41.36-1.1 2.03-.42 2.06-26.53-1.02Zm-265.1-2.04c-1.26-1.6-1.72-13.3-.93-23.69 1.12-14.76 3.8-27.42 8.37-39.68 1.18-3.18 1.8-3.94 3.18-3.94 1.56 0 27.74 10.56 28.8 11.6.5.52-.42 3.82-3.21 11.51-3.52 9.7-4.98 17.73-5.43 30.01-.4 10.8-.53 11.54-2.02 12.16-1.53.63-22.06 2.97-26.05 2.97-1.09 0-2.3-.42-2.71-.94Zm231.3-56.68c-.69-.76-1.25-1.63-1.25-1.95 0-.3 2.22-2.98 4.94-5.94 2.72-2.95 6.5-7.53 8.4-10.17 2.92-4.06 3.5-5.45 3.76-9 .28-3.89.08-4.53-2.72-8.7-6.32-9.43-10.58-9.58-29.73-1.02-8.57 3.83-10.55 4.06-9.99 1.2.4-2.05 25.24-36.56 26.72-37.13.58-.22 1.83.07 2.78.65 4.05 2.48 14.54 12.11 20.76 19.05 9.82 10.97 22.05 29.8 21.04 32.4-.36.97-41.43 21.98-42.94 21.98-.3 0-1.1-.62-1.78-1.37ZM52.62 111.88c-11.57-6.16-13.69-7.55-13.69-8.98 0-1.99 4.48-9.52 10.39-17.47 8.66-11.66 31.11-32.25 35.16-32.25 1.17 0 3.8 3.34 10.72 13.58 5.04 7.47 9.32 14.17 9.5 14.88.26.96-1.53 2.63-6.75 6.33a113.7 113.7 0 0 0-24.48 24.08c-2.93 3.92-5.74 7.12-6.25 7.12-.5 0-7.07-3.29-14.6-7.3Zm161.44-27.3c-7.77-5.12-21.61-10.72-32.25-13.02-3.3-.72-6.47-1.75-7.05-2.29-.89-.84-.88-3.92.08-21.19.62-11.11 1.37-20.58 1.66-21.05 1.2-1.95 15.62-.2 30.1 3.64 13.6 3.6 34.87 12.85 35.94 15.62.5 1.27.63 1.01-11.86 22.08-11.6 19.56-11.59 19.54-16.62 16.21Zm-100.25-7.92c-2.36-2.68-17.13-29.3-17.13-30.87 0-1.29 1.65-2.43 8.43-5.83 14.32-7.18 30.9-11.9 48.5-13.8 6.54-.7 7.97-.66 8.86.23 1.36 1.36 2.97 39.9 1.73 41.39-.49.59-4.18 1.09-10.33 1.39-11.03.53-20.23 2.3-29.81 5.73a419.23 419.23 0 0 1-7.9 2.76c-.64.2-1.7-.25-2.35-1Zm267.68 57.84V59.11h37.05c10.53 0 17.9 2.3 22.11 6.9 4.22 4.6 6.32 12.67 6.32 24.2 0 18.8-1.69 30.88-5.07 36.24-3.4 5.36-11.03 8.03-22.92 8.03H381.5Zm14.3-12.04h20.37c6.85 0 11.28-1.58 13.28-4.72 2.01-3.15 3.01-10.1 3.01-20.85 0-11.12-.9-18.18-2.7-21.2-1.8-3.02-6.04-4.53-12.7-4.53h-21.26v51.3Zm61.62-63.33h14.3v75.37h-14.3zm58.97-.67c13.7 0 22.51 2.28 26.45 6.82 3.94 4.55 5.9 14.72 5.9 30.5 0 17.27-1.97 28.15-5.93 32.64-3.95 4.5-13.53 6.74-28.74 6.74-13.7 0-22.54-2.22-26.56-6.66-4-4.43-6.02-14.2-6.02-29.29 0-17.96 1.97-29.24 5.91-33.85 3.94-4.6 13.6-6.9 29-6.9Zm-1.1 12.26c-9.61 0-15.22 1.23-16.84 3.7-1.62 2.47-2.43 11-2.43 25.62 0 10.82.94 17.34 2.84 19.55 1.9 2.2 7.48 3.3 16.76 3.3 8.87 0 14.19-1.23 15.95-3.72 1.77-2.48 2.66-10.02 2.66-22.6 0-12.63-.84-20.1-2.52-22.4-1.67-2.3-7.15-3.45-16.42-3.45Zm113.08-11.59v75.36h-24.24l-21.54-41.35a227.24 227.24 0 0 1-5.02-10.82l-2.43-5.42-2.37-5.4h-.56l.22 4.96.17 4.92.11 9.88v43.23h-14.3V59.12h24.24l19.6 38.21a465.7 465.7 0 0 1 6.02 12.32l2.87 6.13 2.87 6.18h.5l-.33-9.72-.11-9.72v-43.4h14.3Zm75.7 0-27.94 46.6v28.76h-14.3v-28.76l-27.17-46.6h16.57L662.59 79c.63 1.1 1.7 3.15 3.2 6.13l1.6 3.04 1.55 3.04h.39l3.2-6.08c1.36-2.72 2.45-4.77 3.26-6.13l11.48-19.87h16.79Zm62.23 21.97h-13.97c-.08-.7-.11-1.21-.11-1.54-.34-4.24-1.27-6.9-2.82-7.98-1.55-1.09-5.19-1.63-10.93-1.63-6.78 0-11.2.62-13.28 1.87-2.08 1.26-3.12 3.89-3.12 7.9 0 4.75.84 7.6 2.54 8.56 1.7.96 7.29 1.7 16.78 2.2 11.23.63 18.5 2.23 21.79 4.81 3.3 2.58 4.94 7.93 4.94 16.07 0 10.01-1.93 16.48-5.8 19.4-3.87 2.93-12.39 4.4-25.56 4.4-11.86 0-19.73-1.44-23.6-4.31-3.9-2.87-5.83-8.69-5.83-17.45l-.06-2.76h13.91l.06 1.6c0 5.27.92 8.49 2.76 9.66 1.84 1.18 6.87 1.77 15.07 1.77 6.41 0 10.5-.68 12.26-2.04 1.77-1.36 2.65-4.51 2.65-9.44 0-3.65-.67-6.07-2.01-7.26-1.35-1.2-4.25-1.93-8.7-2.19l-7.9-.5c-11.92-.7-19.54-2.35-22.85-4.96-3.32-2.62-4.97-8.23-4.97-16.84 0-8.8 2-14.66 5.99-17.59 4-2.93 11.97-4.39 23.93-4.39 11.34 0 18.98 1.35 22.92 4.03 3.94 2.69 5.9 7.94 5.9 15.74v2.87Zm43.06-22.64c13.7 0 22.51 2.28 26.45 6.82 3.94 4.55 5.91 14.72 5.91 30.5 0 17.27-1.98 28.15-5.93 32.64-3.96 4.5-13.54 6.74-28.74 6.74-13.7 0-22.55-2.22-26.56-6.66-4.02-4.43-6.02-14.2-6.02-29.29 0-17.96 1.97-29.24 5.9-33.85 3.95-4.6 13.6-6.9 29-6.9Zm-1.1 12.26c-9.6 0-15.22 1.23-16.84 3.7-1.62 2.47-2.43 11-2.43 25.62 0 10.82.95 17.34 2.84 19.55 1.9 2.2 7.49 3.3 16.76 3.3 8.87 0 14.2-1.23 15.96-3.72 1.77-2.48 2.65-10.02 2.65-22.6 0-12.63-.84-20.1-2.51-22.4-1.68-2.3-7.15-3.45-16.43-3.45Zm57.42-11.59v62.55h35.34v12.81h-49.64V59.12h14.3Zm98.51 21.97H950.2c-.08-.7-.11-1.21-.11-1.54-.33-4.24-1.27-6.9-2.82-7.98-1.54-1.09-5.19-1.63-10.93-1.63-6.77 0-11.2.62-13.28 1.87-2.08 1.26-3.12 3.89-3.12 7.9 0 4.75.85 7.6 2.54 8.56 1.7.96 7.29 1.7 16.79 2.2 11.22.63 18.48 2.23 21.78 4.81 3.3 2.58 4.94 7.93 4.94 16.07 0 10.01-1.93 16.48-5.8 19.4-3.86 2.93-12.38 4.4-25.56 4.4-11.86 0-19.72-1.44-23.6-4.31-3.89-2.87-5.83-8.69-5.83-17.45l-.06-2.76h13.92l.05 1.6c0 5.27.92 8.49 2.76 9.66 1.84 1.18 6.87 1.77 15.08 1.77 6.4 0 10.49-.68 12.25-2.04 1.77-1.36 2.65-4.51 2.65-9.44 0-3.65-.67-6.07-2.01-7.26-1.34-1.2-4.24-1.93-8.7-2.19l-7.9-.5c-11.92-.7-19.54-2.35-22.85-4.96-3.32-2.62-4.97-8.23-4.97-16.84 0-8.8 2-14.66 5.99-17.59 4-2.93 11.97-4.39 23.93-4.39 11.34 0 18.98 1.35 22.92 4.03 3.94 2.69 5.9 7.94 5.9 15.74v2.87ZM471.56 196.24v-26.38h12.97c3.04 0 5.11.48 6.22 1.46 1.1.97 1.65 2.8 1.65 5.5 0 3.26-1.3 5.18-3.89 5.76v.1c3.02.46 4.53 2.55 4.53 6.27 0 2.7-.58 4.58-1.74 5.67-1.16 1.08-3.19 1.62-6.07 1.62h-13.67Zm5.01-15.3h6.13c1.98 0 3.25-.23 3.8-.66.54-.44.82-1.45.82-3.04 0-2.11-1.2-3.17-3.6-3.17h-7.15v6.86Zm0 11.09h5.49l1.76-.04c1.69 0 2.8-.24 3.33-.72.54-.47.8-1.48.8-3.01 0-1.6-.28-2.6-.84-3.02-.56-.4-1.94-.61-4.14-.61h-6.4v7.4Zm41.96-22.17-9.78 16.31v10.07h-5v-10.07l-9.51-16.31h5.8l3.97 6.96c.22.38.6 1.1 1.13 2.14l.56 1.06.54 1.07h.13l1.12-2.13c.48-.95.86-1.67 1.14-2.14l4.02-6.96h5.88ZM541 182.2h11.62l.08 5.25c0 3.81-.72 6.27-2.16 7.37-1.43 1.1-4.64 1.65-9.61 1.65-4.56 0-7.58-.73-9.06-2.2-1.49-1.47-2.23-4.47-2.23-8.99 0-5.77.3-9.42.9-10.94.73-1.85 1.84-3.1 3.34-3.75 1.49-.64 4.03-.96 7.6-.96 4.7 0 7.73.5 9.1 1.5 1.36 1 2.04 3.2 2.04 6.63h-5.06c-.1-1.72-.47-2.8-1.13-3.22-.67-.41-2.33-.62-5-.62-2.9 0-4.74.36-5.52 1.08-.78.72-1.17 2.42-1.17 5.08l-.01 2.65.03 3.38c0 2.62.39 4.28 1.16 5 .78.71 2.57 1.07 5.38 1.07 2.73 0 4.46-.3 5.2-.9.75-.61 1.12-2.04 1.12-4.3l.02-1.08H541v-3.7Zm19.7-8.13v6.8h12.37v3.7H560.7v7.46h13.16v4.21H555.7v-26.38h18.06v4.21H560.7Zm36.47 3.48h-4.89a5.7 5.7 0 0 1-.04-.54c-.11-1.48-.44-2.41-.98-2.8-.54-.37-1.82-.56-3.83-.56-2.37 0-3.92.22-4.65.65-.73.44-1.09 1.36-1.09 2.77 0 1.66.3 2.66.89 3 .6.33 2.55.59 5.87.77 3.93.22 6.48.78 7.63 1.68 1.15.9 1.73 2.77 1.73 5.62 0 3.5-.68 5.77-2.03 6.8-1.35 1.02-4.34 1.53-8.95 1.53-4.15 0-6.9-.5-8.26-1.5-1.36-1.01-2.04-3.05-2.04-6.11l-.02-.97h4.87l.02.56c0 1.84.32 2.97.97 3.38.64.42 2.4.62 5.27.62 2.25 0 3.68-.24 4.3-.71.61-.48.92-1.58.92-3.3 0-1.28-.23-2.13-.7-2.55-.47-.42-1.49-.67-3.05-.76l-2.76-.18c-4.18-.24-6.84-.82-8-1.74-1.16-.91-1.74-2.88-1.74-5.9 0-3.07.7-5.12 2.1-6.15 1.4-1.02 4.19-1.53 8.37-1.53 3.97 0 6.64.47 8.02 1.4 1.38.95 2.07 2.78 2.07 5.52v1Zm4.12 18.69v-26.38h13c3.24 0 5.47.56 6.7 1.68 1.22 1.12 1.83 3.15 1.83 6.09 0 2.67-.3 4.49-.92 5.47-.61.98-1.86 1.65-3.76 2.03v.17c2.93.18 4.39 1.89 4.39 5.12v5.82h-5v-4.81c0-2.72-1.35-4.08-4.03-4.08h-7.2v8.89h-5.01Zm5-13.1h7.2c1.7 0 2.84-.31 3.4-.92.57-.61.85-1.84.85-3.68 0-1.88-.25-3.1-.73-3.65-.48-.54-1.54-.82-3.18-.82h-7.54v9.07Zm24.99-9.07v6.8h12.37v3.7h-12.37v7.46h13.17v4.21h-18.17v-26.38h18.05v4.21h-13.05Zm36.47 3.48h-4.89a5.7 5.7 0 0 1-.03-.54c-.12-1.48-.45-2.41-1-2.8-.53-.37-1.8-.56-3.82-.56-2.37 0-3.92.22-4.64.65-.73.44-1.1 1.36-1.1 2.77 0 1.66.3 2.66.9 3 .58.33 2.54.59 5.87.77 3.93.22 6.47.78 7.62 1.68 1.16.9 1.73 2.77 1.73 5.62 0 3.5-.67 5.77-2.03 6.8-1.35 1.02-4.33 1.53-8.95 1.53-4.14 0-6.9-.5-8.26-1.5-1.36-1.01-2.04-3.05-2.04-6.11l-.02-.97h4.87l.02.56c0 1.84.33 2.97.97 3.38.64.42 2.4.62 5.28.62 2.24 0 3.67-.24 4.29-.71.61-.48.92-1.58.92-3.3 0-1.28-.23-2.13-.7-2.55-.47-.42-1.49-.67-3.05-.76l-2.76-.18c-4.17-.24-6.84-.82-8-1.74-1.16-.91-1.74-2.88-1.74-5.9 0-3.07.7-5.12 2.1-6.15 1.4-1.02 4.19-1.53 8.38-1.53 3.96 0 6.64.47 8.02 1.4 1.37.95 2.06 2.78 2.06 5.52v1Zm14.63-3.21v21.9h-5v-21.9h-7.62v-4.48h20.51v4.48h-7.89Zm26.39 16.84h-11.39l-1.64 5.06h-5.3l8.78-26.38h7.52l8.9 26.38h-5.2l-1.67-5.06Zm-1.16-3.7-4.57-13.74-4.48 13.74h9.05Zm27.29-17.62h5v17.55c0 3.67-.7 6.1-2.12 7.28-1.4 1.19-4.29 1.78-8.64 1.78-4.6 0-7.62-.56-9.05-1.68-1.43-1.12-2.14-3.48-2.14-7.1v-17.83h5v17.84c0 1.94.35 3.18 1.04 3.7.7.52 2.34.78 4.91.78 2.65 0 4.3-.26 4.98-.8.68-.52 1.02-1.81 1.02-3.88v-17.64Zm9.62 26.38v-26.38h13c3.24 0 5.47.56 6.7 1.68 1.22 1.12 1.83 3.15 1.83 6.09 0 2.67-.3 4.49-.92 5.47-.6.98-1.86 1.65-3.76 2.03v.17c2.93.18 4.4 1.89 4.4 5.12v5.82h-5.01v-4.81c0-2.72-1.34-4.08-4.02-4.08h-7.21v8.89h-5Zm5-13.1h7.2c1.71 0 2.85-.31 3.4-.92.57-.61.85-1.84.85-3.68 0-1.88-.24-3.1-.73-3.65-.48-.54-1.54-.82-3.18-.82h-7.53v9.07Zm36.48 8.04h-11.4l-1.64 5.06h-5.3l8.78-26.38h7.52l8.9 26.38h-5.2l-1.67-5.06Zm-1.16-3.7-4.56-13.74-4.49 13.74h9.05Zm20.83-13.14v21.9h-5v-21.9h-7.62v-4.48h20.5v4.48h-7.88Zm10.42-4.48h5.01v26.38h-5.01zm20.64-.23c4.8 0 7.88.8 9.26 2.38 1.38 1.6 2.07 5.15 2.07 10.68 0 6.05-.7 9.85-2.08 11.42-1.39 1.58-4.74 2.36-10.06 2.36-4.8 0-7.9-.77-9.3-2.33-1.4-1.55-2.1-4.97-2.1-10.25 0-6.29.68-10.24 2.06-11.85 1.38-1.6 4.76-2.41 10.15-2.41Zm-.39 4.29c-3.36 0-5.32.43-5.9 1.3-.56.85-.84 3.84-.84 8.96 0 3.79.33 6.07 1 6.84.66.77 2.61 1.16 5.86 1.16 3.1 0 4.97-.43 5.59-1.3.61-.87.92-3.51.92-7.92 0-4.42-.29-7.03-.88-7.84-.58-.8-2.5-1.2-5.75-1.2Zm39.59-4.06v26.38h-8.49l-7.54-14.48c-.37-.72-.96-1.98-1.75-3.78l-.85-1.9-.84-1.9h-.19l.08 1.75.06 1.72.03 3.46v15.13h-5v-26.38h8.48l6.86 13.37c.61 1.19 1.31 2.63 2.11 4.31l1 2.15 1.01 2.16h.17l-.11-3.4-.04-3.4v-15.2h5Z"/>
  <path d="m440.07 187.06-58.58-4.01 58.58-4.01v8.02Zm467.35 0 58.58-4.01-58.58-4.01v8.02Z"/>
</svg>
