<svg fill="currentcolor"  xmlns="http://www.w3.org/2000/svg" xml:space="preserve" fill-rule="evenodd" stroke-linejoin="round" stroke-miterlimit="2" clip-rule="evenodd" viewBox="0 0 600 289">
  <path fill-rule="nonzero" d="M18.75 146.03v32.88c0 5.12 1.66 9.1 4.97 11.92 3.32 2.82 7.76 4.23 13.33 4.23 6.93 0 12.49-2.37 16.67-7.11 4.18-4.75 6.27-10.51 6.27-17.29 0-6.93-1.98-12.76-5.93-17.5-3.96-4.75-9.32-7.13-16.1-7.13h-19.2ZM0 180.72v-49.94h43.15c11.75 0 20.96 3.71 27.63 11.13 6.66 7.42 10 17.08 10 28.98 0 12.5-4.32 22.46-12.94 29.88-8.63 7.42-18.89 11.12-30.79 11.12-11 0-19.92-2.56-26.77-7.68C3.43 199.1 0 191.26 0 180.71m135.22 50.62H115c.38-.3.85-.74 1.41-1.3.57-.57 1.58-1.77 3.05-3.62a44.36 44.36 0 0 0 3.9-5.76c1.13-2 2.2-4.48 3.22-7.46a29.96 29.96 0 0 0 1.64-8.98c-3.77 4.97-9.38 7.46-16.83 7.46-15.6 0-23.39-7.95-23.39-23.84v-36.49h17.28v31.18c0 4.67.8 8.21 2.38 10.62 1.58 2.41 4.44 3.62 8.58 3.62 8.21 0 12.32-4.7 12.32-14.12v-31.3h17.28v50.27c0 5.43-.89 10.6-2.65 15.54-1.77 4.93-3.56 8.53-5.37 10.79l-2.6 3.39Zm48.8-66.09c-7.76 0-11.63 4.63-11.63 13.9v31.4H155.1v-35.7c0-8.2 2.66-14.36 7.97-18.47 5.3-4.1 12.3-6.16 20.95-6.16 8.66 0 15.65 2.06 20.96 6.16 5.3 4.1 7.96 10.26 7.96 18.47v35.7h-17.28v-31.4c0-9.27-3.88-13.9-11.64-13.9m80.49 27.11c2.9-2.94 4.35-6.74 4.35-11.4 0-4.68-1.45-8.48-4.35-11.42-2.9-2.93-6.68-4.4-11.35-4.4-4.6 0-8.32 1.5-11.19 4.52-2.86 3-4.29 6.77-4.29 11.3 0 4.66 1.41 8.46 4.24 11.4 2.82 2.94 6.57 4.4 11.24 4.4s8.45-1.46 11.35-4.4m22.88-9.71v27.9h-16.95v-7.34c-5.04 5.5-11.79 8.24-20.22 8.24-8.89 0-16.21-2.75-21.97-8.24-5.76-5.5-8.64-12.77-8.64-21.8 0-9.12 3.1-16.6 9.32-22.43 6.21-5.84 14.36-8.76 24.45-8.76 10.55 0 18.85 2.94 24.91 8.82 6.06 5.87 9.1 13.74 9.1 23.6m30.67-13.1c-2.9 2.94-4.35 6.74-4.35 11.41s1.45 8.47 4.35 11.41c2.9 2.94 6.68 4.4 11.35 4.4 4.6 0 8.32-1.5 11.18-4.51 2.87-3.01 4.3-6.78 4.3-11.3 0-4.67-1.41-8.47-4.24-11.4-2.82-2.94-6.57-4.41-11.24-4.41s-8.45 1.47-11.35 4.4m-21.75 8.14v-46.89h17.28v26.44c4.52-4.67 10.96-7 19.32-7 9.19 0 16.5 2.84 21.92 8.52 5.42 5.7 8.13 13.2 8.13 22.54 0 8.81-3.09 16.08-9.26 21.8-6.18 5.73-14.01 8.59-23.5 8.59-10.62 0-18.92-3-24.9-8.98-6-5.99-8.99-14.33-8.99-25.02m102.24 19.09c7.75 0 11.63-4.63 11.63-13.9v-31.52h17.29v35.81c0 8.14-2.64 14.26-7.91 18.36s-12.28 6.16-21.01 6.16c-8.74 0-15.75-2.05-21.02-6.16-5.27-4.1-7.9-10.22-7.9-18.36v-35.8h17.28v31.51c0 9.27 3.88 13.9 11.64 13.9m85.4 34.57h-20.22c.37-.3.85-.74 1.41-1.3.56-.57 1.58-1.77 3.05-3.62a44.46 44.46 0 0 0 3.9-5.76c1.13-2 2.2-4.48 3.22-7.46a29.96 29.96 0 0 0 1.64-8.98c-3.77 4.97-9.38 7.46-16.84 7.46-15.59 0-23.38-7.95-23.38-23.84v-36.49H454v31.18c0 4.67.8 8.21 2.37 10.62 1.59 2.41 4.45 3.62 8.59 3.62 8.2 0 12.31-4.7 12.31-14.12v-31.3h17.29v50.27c0 5.43-.89 10.6-2.66 15.54-1.77 4.93-3.56 8.53-5.36 10.79l-2.6 3.39Zm-378.92 17.36A11.25 11.25 0 0 0 97 252c-1 1.03-1.78 2.26-2.36 3.7a12.4 12.4 0 0 0-.86 4.66c0 1.78.27 3.39.81 4.84a10.36 10.36 0 0 0 5.81 6.12c1.38.57 2.89.86 4.54.86 1.62 0 3.12-.29 4.5-.87a10.56 10.56 0 0 0 5.91-6.11c.56-1.45.84-3.06.84-4.84 0-1.68-.26-3.24-.8-4.67a10.59 10.59 0 0 0-2.26-3.69 10.66 10.66 0 0 0-3.52-2.43c-1.37-.59-2.9-.88-4.58-.88m19.85 28.62h-19.94a21.7 21.7 0 0 1-7.22-1.14 14.67 14.67 0 0 1-9.13-8.64c-.84-2.1-1.26-4.5-1.26-7.17 0-2.52.45-4.82 1.33-6.89a15.8 15.8 0 0 1 3.71-5.34 16.89 16.89 0 0 1 5.63-3.48c2.17-.83 4.5-1.24 7.03-1.24 2.52 0 4.86.41 7 1.24 2.15.82 4.01 1.98 5.59 3.48a15.7 15.7 0 0 1 3.66 5.34 17.64 17.64 0 0 1 1.31 6.9 15.47 15.47 0 0 1-1.85 7.49 13.04 13.04 0 0 1-4.03 4.6v.09h8.17v4.76Zm23.39 0h-5.32v-3.6h-.1a7.24 7.24 0 0 1-2.58 2.97 7.46 7.46 0 0 1-4.37 1.29 8.43 8.43 0 0 1-3.76-.77 7.41 7.41 0 0 1-2.57-2.03 8.18 8.18 0 0 1-1.47-2.9 12.18 12.18 0 0 1-.47-3.36V254.9h5.6v12.42c0 .65.05 1.34.15 2.05.1.72.3 1.37.6 1.94a4 4 0 0 0 1.29 1.43 3.8 3.8 0 0 0 2.17.56 4.83 4.83 0 0 0 3.95-1.92c.42-.56.74-1.2.95-1.93.22-.74.33-1.48.33-2.22V254.9h5.6v22.41Zm21.58-13.45c0-.71-.1-1.4-.3-2.05a4.69 4.69 0 0 0-2.62-2.92 5.78 5.78 0 0 0-2.36-.44c-1.68 0-3.1.5-4.27 1.52a5.53 5.53 0 0 0-1.94 3.9h11.49Zm5.6 2.53v.74c0 .25-.01.5-.04.75h-17.05a5.53 5.53 0 0 0 2.06 3.95 7.07 7.07 0 0 0 4.34 1.56 6.65 6.65 0 0 0 5.93-2.9l3.74 3c-2.22 2.98-5.42 4.48-9.62 4.48-1.75 0-3.35-.27-4.82-.82a11.31 11.31 0 0 1-3.8-2.31c-1.08-1-1.92-2.22-2.52-3.67a12.55 12.55 0 0 1-.91-4.92c0-1.8.3-3.45.9-4.93a11.34 11.34 0 0 1 2.5-3.78 11.2 11.2 0 0 1 3.76-2.43c1.45-.58 3.02-.87 4.7-.87 1.55 0 3 .26 4.32.77a9.4 9.4 0 0 1 3.43 2.3 10.65 10.65 0 0 1 2.27 3.78c.54 1.5.81 3.27.81 5.3m19.57-.38c0 .87.13 1.75.4 2.62.26.87.66 1.65 1.19 2.33a5.9 5.9 0 0 0 4.86 2.33 5.9 5.9 0 0 0 2.75-.62c.8-.42 1.5-.97 2.08-1.66a7.88 7.88 0 0 0 0-9.85 7.09 7.09 0 0 0-2.08-1.69 5.72 5.72 0 0 0-2.76-.65 6 6 0 0 0-4.86 2.29 7.22 7.22 0 0 0-1.18 2.31 8.6 8.6 0 0 0-.4 2.6m18.45 11.3h-5.33v-3.37h-.1a7.63 7.63 0 0 1-3.24 2.99 9.93 9.93 0 0 1-4.46 1.03 10.56 10.56 0 0 1-8.06-3.53 11.38 11.38 0 0 1-2.19-3.78 13.92 13.92 0 0 1 .03-9.27 11.28 11.28 0 0 1 2.24-3.74 10.47 10.47 0 0 1 7.84-3.4 9.9 9.9 0 0 1 4.88 1.2 8.3 8.3 0 0 1 2.64 2.3h.14V242h5.6v35.3Zm21.66-13.46c0-.71-.1-1.4-.3-2.05a4.69 4.69 0 0 0-2.62-2.92 5.78 5.78 0 0 0-2.35-.44c-1.68 0-3.1.5-4.28 1.52a5.53 5.53 0 0 0-1.93 3.9h11.48Zm5.6 2.53v.74c0 .25 0 .5-.04.75h-17.04a5.53 5.53 0 0 0 2.05 3.95 7.07 7.07 0 0 0 4.34 1.56 6.65 6.65 0 0 0 5.93-2.9l3.74 3c-2.21 2.98-5.42 4.48-9.62 4.48-1.74 0-3.35-.27-4.8-.82a11.31 11.31 0 0 1-3.82-2.31c-1.07-1-1.91-2.22-2.52-3.67-.6-1.44-.9-3.09-.9-4.92 0-1.8.3-3.45.9-4.93a11.19 11.19 0 0 1 2.5-3.78 11.2 11.2 0 0 1 3.76-2.43c1.45-.58 3.01-.87 4.7-.87 1.55 0 2.99.26 4.31.77a9.4 9.4 0 0 1 3.44 2.3 10.65 10.65 0 0 1 2.26 3.78c.55 1.5.82 3.27.82 5.3m16.76-5.52a6.5 6.5 0 0 0-4.9-2.42c-.9 0-1.73.18-2.48.56-.74.37-1.12 1-1.12 1.86 0 .88.41 1.5 1.24 1.85.82.36 2.03.72 3.62 1.1.84.18 1.69.43 2.55.74a9.8 9.8 0 0 1 2.33 1.24 5.52 5.52 0 0 1 2.36 4.7 6.55 6.55 0 0 1-2.83 5.8 8.63 8.63 0 0 1-2.99 1.27c-1.13.26-2.3.4-3.52.4-1.75 0-3.44-.32-5.1-.96a10.75 10.75 0 0 1-4.1-2.73l3.69-3.46a7.35 7.35 0 0 0 5.74 2.8 5.36 5.36 0 0 0 2.41-.58 2.3 2.3 0 0 0 1.2-2.08 2.08 2.08 0 0 0-1.3-2 20.5 20.5 0 0 0-3.85-1.22c-.84-.19-1.66-.43-2.45-.72-.8-.3-1.5-.69-2.13-1.17a5.39 5.39 0 0 1-1.49-1.8 5.71 5.71 0 0 1-.56-2.66 6.41 6.41 0 0 1 2.8-5.44c.84-.58 1.8-1 2.85-1.29a13.77 13.77 0 0 1 8 .42 8 8 0 0 1 3.68 2.57l-3.65 3.22Zm32.09 6.22h-1.27c-.9 0-1.85.04-2.84.11-1 .08-1.92.25-2.76.52a5.9 5.9 0 0 0-2.1 1.12 2.48 2.48 0 0 0-.84 1.98 2.39 2.39 0 0 0 1.26 2.2c.37.22.8.37 1.26.46.47.1.93.14 1.4.14 1.93 0 3.4-.51 4.4-1.54a5.78 5.78 0 0 0 1.49-4.2v-.8Zm.09 7.38h-.14a6.26 6.26 0 0 1-2.71 2.45 9.2 9.2 0 0 1-4.25.95c-.9 0-1.84-.11-2.82-.35a8.4 8.4 0 0 1-2.71-1.16 6.17 6.17 0 0 1-2.87-5.44c0-1.69.47-3.02 1.42-4.02a9.2 9.2 0 0 1 3.66-2.29 20.7 20.7 0 0 1 4.98-1.05 57.5 57.5 0 0 1 5.35-.26v-.56c0-1.4-.51-2.43-1.52-3.1a6.4 6.4 0 0 0-3.62-1 8.88 8.88 0 0 0-6.11 2.56l-2.9-3.4a12.65 12.65 0 0 1 4.4-2.67c1.67-.59 3.36-.89 5.08-.89 1.99 0 3.63.28 4.92.84 1.3.56 2.31 1.3 3.06 2.2.75.9 1.27 1.91 1.57 3.04.29 1.12.44 2.24.44 3.36v13.63h-5.23v-2.84Zm7.47-19.57h6.12l5.88 16.34h.1l5.93-16.34h5.93l-8.92 22.41h-5.98l-9.06-22.41Zm40.21 12.19h-1.26c-.9 0-1.86.04-2.85.11-1 .08-1.92.25-2.76.52a5.9 5.9 0 0 0-2.1 1.12 2.48 2.48 0 0 0-.84 1.98 2.39 2.39 0 0 0 1.26 2.2c.37.22.8.37 1.26.46.47.1.94.14 1.4.14 1.93 0 3.4-.51 4.4-1.54a5.78 5.78 0 0 0 1.49-4.2v-.8Zm.09 7.38h-.14a6.26 6.26 0 0 1-2.7 2.45 9.2 9.2 0 0 1-4.26.95c-.9 0-1.84-.11-2.82-.35a8.4 8.4 0 0 1-2.71-1.16 6.17 6.17 0 0 1-2.87-5.44c0-1.69.47-3.02 1.42-4.02a9.2 9.2 0 0 1 3.67-2.29c1.5-.53 3.15-.88 4.97-1.05a57.5 57.5 0 0 1 5.35-.26v-.56c0-1.4-.51-2.43-1.52-3.1a6.4 6.4 0 0 0-3.62-1 9.11 9.11 0 0 0-6.12 2.56l-2.9-3.4a12.65 12.65 0 0 1 4.42-2.67c1.66-.59 3.35-.89 5.07-.89 1.99 0 3.63.28 4.92.84 1.3.56 2.32 1.3 3.06 2.2.75.9 1.27 1.91 1.57 3.04.3 1.12.44 2.24.44 3.36v13.63h-5.23v-2.84Zm10.83-19.57h5.33v3.6h.1a7.24 7.24 0 0 1 2.58-2.97 7.46 7.46 0 0 1 4.37-1.29c1.46 0 2.72.26 3.76.77a7.55 7.55 0 0 1 4.04 4.94c.31 1.08.47 2.2.47 3.35v14.01h-5.6V264.9c0-.65-.05-1.34-.15-2.05-.1-.72-.3-1.36-.6-1.94a4.03 4.03 0 0 0-1.29-1.43 3.78 3.78 0 0 0-2.17-.56 4.79 4.79 0 0 0-3.95 1.92c-.42.56-.74 1.2-.95 1.94a7.73 7.73 0 0 0-.33 2.22v12.32h-5.6V254.9Zm23.02 4.48v-4.48h3.93v-6.5h5.51v6.5h5.6v4.48h-5.6v10.42c0 1 .18 1.82.54 2.47.36.65 1.16.98 2.4.98a6.8 6.8 0 0 0 2.38-.47l.2 4.4a12.5 12.5 0 0 1-3.73.6 9.01 9.01 0 0 1-3.66-.63 5.6 5.6 0 0 1-2.22-1.73 6.38 6.38 0 0 1-1.12-2.52c-.2-.95-.3-1.97-.3-3.06v-10.46h-3.92Zm32 7.71h-1.27c-.9 0-1.85.04-2.84.11-1 .08-1.92.25-2.76.52a5.9 5.9 0 0 0-2.1 1.12 2.48 2.48 0 0 0-.84 1.98 2.39 2.39 0 0 0 1.26 2.2c.37.22.8.37 1.26.46.47.1.93.14 1.4.14 1.93 0 3.4-.51 4.4-1.54a5.78 5.78 0 0 0 1.49-4.2v-.8Zm.09 7.38h-.14a6.26 6.26 0 0 1-2.7 2.45 9.2 9.2 0 0 1-4.26.95c-.9 0-1.84-.11-2.82-.35a8.4 8.4 0 0 1-2.71-1.16 6.17 6.17 0 0 1-2.87-5.44c0-1.69.47-3.02 1.42-4.02a9.2 9.2 0 0 1 3.67-2.29 20.5 20.5 0 0 1 4.97-1.05 57.5 57.5 0 0 1 5.35-.26v-.56c0-1.4-.51-2.43-1.52-3.1a6.4 6.4 0 0 0-3.62-1 8.88 8.88 0 0 0-6.11 2.56l-2.9-3.4a12.65 12.65 0 0 1 4.4-2.67c1.67-.59 3.36-.89 5.08-.89 1.99 0 3.63.28 4.92.84 1.3.56 2.31 1.3 3.06 2.2.75.9 1.27 1.91 1.57 3.04.3 1.12.44 2.24.44 3.36v13.63h-5.23v-2.84Zm21.67-15.65a5.91 5.91 0 0 0-4.74 2.07 6.8 6.8 0 0 0-1.26 2.26 8.6 8.6 0 0 0 0 5.4c.3.84.71 1.59 1.26 2.26a5.84 5.84 0 0 0 4.7 2.21 6.46 6.46 0 0 0 6.2-4.4 8.1 8.1 0 0 0 0-5.42 6.94 6.94 0 0 0-1.33-2.28 6.2 6.2 0 0 0-4.83-2.1M437 254.9v20.4c0 2.03-.25 3.86-.74 5.5a10.64 10.64 0 0 1-2.32 4.15 10.43 10.43 0 0 1-3.94 2.64c-1.6.62-3.47.93-5.65.93a19.04 19.04 0 0 1-5.86-.93c-.99-.31-1.93-.7-2.83-1.17-.9-.47-1.71-1-2.43-1.59l3.22-4.34a11.55 11.55 0 0 0 7.85 3.18 8.5 8.5 0 0 0 3.39-.6 5.4 5.4 0 0 0 2.19-1.6c.54-.7.93-1.5 1.17-2.44.23-.94.35-1.97.35-3.1v-1.64h-.1a7.9 7.9 0 0 1-3.1 2.52 9.97 9.97 0 0 1-4.23.88c-1.68 0-3.2-.31-4.57-.94a10.38 10.38 0 0 1-3.48-2.52 11.55 11.55 0 0 1-2.22-3.71 13.46 13.46 0 0 1-.02-9.08 10.46 10.46 0 0 1 10.2-7.2c1.59 0 3.07.33 4.44.99a7.49 7.49 0 0 1 3.26 3.03h.1v-3.36H437Zm21.59 8.96c0-.71-.1-1.4-.3-2.05a4.67 4.67 0 0 0-2.62-2.92 5.78 5.78 0 0 0-2.36-.44c-1.68 0-3.1.5-4.27 1.52a5.53 5.53 0 0 0-1.94 3.9h11.49Zm5.6 2.53v.74a6 6 0 0 1-.05.75H447.1a5.54 5.54 0 0 0 2.05 3.95 7.08 7.08 0 0 0 4.35 1.56 6.63 6.63 0 0 0 5.93-2.9l3.73 3c-2.2 2.98-5.41 4.48-9.62 4.48-1.74 0-3.34-.27-4.8-.82a11.32 11.32 0 0 1-3.81-2.31c-1.08-1-1.92-2.22-2.53-3.67-.6-1.44-.9-3.09-.9-4.92 0-1.8.3-3.45.9-4.93a11.2 11.2 0 0 1 2.5-3.78 11.18 11.18 0 0 1 3.76-2.43c1.45-.58 3.01-.87 4.7-.87 1.55 0 3 .26 4.32.77a9.4 9.4 0 0 1 3.43 2.3 10.64 10.64 0 0 1 2.26 3.78c.55 1.5.82 3.27.82 5.3m16.77-5.52a6.5 6.5 0 0 0-2.06-1.7 5.8 5.8 0 0 0-5.32-.16c-.75.37-1.12 1-1.12 1.86 0 .88.4 1.5 1.23 1.85.83.36 2.03.72 3.62 1.1.84.18 1.7.43 2.55.74a9.8 9.8 0 0 1 2.33 1.24 5.51 5.51 0 0 1 2.36 4.7 6.55 6.55 0 0 1-2.83 5.8 8.64 8.64 0 0 1-2.98 1.27c-1.14.26-2.31.4-3.53.4-1.74 0-3.44-.32-5.09-.96a10.75 10.75 0 0 1-4.1-2.73l3.68-3.46a7.34 7.34 0 0 0 5.74 2.8 5.36 5.36 0 0 0 2.41-.58 2.3 2.3 0 0 0 1.2-2.08c0-.93-.44-1.6-1.3-2-.85-.41-2.13-.81-3.85-1.22a20.3 20.3 0 0 1-2.45-.72c-.8-.3-1.5-.69-2.12-1.17a5.39 5.39 0 0 1-1.5-1.8 5.71 5.71 0 0 1-.56-2.66 6.41 6.41 0 0 1 2.8-5.44c.84-.58 1.8-1 2.85-1.29a13.77 13.77 0 0 1 8 .42 8 8 0 0 1 3.68 2.57l-3.64 3.22Zm6.49 13.17c0-1 .36-1.85 1.1-2.56a3.64 3.64 0 0 1 2.63-1.08c1 0 1.87.34 2.62 1.03a3.29 3.29 0 0 1 1.12 2.52c0 1-.37 1.85-1.1 2.57a3.63 3.63 0 0 1-2.64 1.07 4.05 4.05 0 0 1-2.62-1.03 3.47 3.47 0 0 1-1.11-2.52M467.27 104.2c-4.71 2.37-9 4.17-12.85 5.42a39.82 39.82 0 0 1-12.29 1.86c-4.33 0-8.45-.61-12.34-1.83a82.94 82.94 0 0 1-12.8-5.4V95.9a51.68 51.68 0 0 0 11.84 4.5 53.14 53.14 0 0 0 26.6-.03 52.62 52.62 0 0 0 11.84-4.52v8.35ZM472 18.8C456.96 6.27 438.46 0 416.5 0c-21.47 0-39.74 6.62-54.77 19.87-15.04 13.25-22.56 30.85-22.56 52.8 0 17.68 4.48 31.75 13.43 42.25 8.95 10.51 21.54 15.76 37.77 15.76h104.18V69.8c0-21.48-7.51-38.48-22.55-51.01m43.19 133.85V100.2h45.31c12.34 0 22 3.9 29 11.68 7 7.8 10.5 17.93 10.5 30.43 0 13.13-4.53 23.58-13.58 31.37-9.06 7.8-19.83 11.69-32.33 11.69-11.54 0-20.91-2.7-28.1-8.07-7.2-5.38-10.8-13.6-10.8-24.67"/>
</svg>