<svg fill="currentcolor"  xmlns="http://www.w3.org/2000/svg" xml:space="preserve" fill-rule="evenodd" stroke-linejoin="round" stroke-miterlimit="2" clip-rule="evenodd" viewBox="0 0 300 118">
  <path fill-rule="nonzero" d="M65.97 50.82c0-1.84 1.1-3.68 2.95-4.42 4.05-2.2 8.47-4.05 12.52-6.63 2.58-1.47 4.79-2.94 6.63-5.15a5.1 5.1 0 0 0 1.1-6.26c-1.1-1.85-3.68-1.85-5.89-1.1a52.17 52.17 0 0 0-6.63 2.94c-4.05 2.2-7.73 4.78-11.78 7.36V36.1c1.84-9.58 3.31-19.52 5.15-29.1V3.32C69.66 1.11 67.82 0 65.61 0c-1.85 0-3.69 1.1-4.06 3.31a62.98 62.98 0 0 0-3.3 11.05c-1.48 9.58-2.22 19.15-3.32 28.73L36.5 48.24V46.4c2.21-11.78 4.05-23.94 6.26-36.09.37-1.84.37-3.68 0-5.52-.36-2.58-3.68-3.69-7.36-2.95a5.1 5.1 0 0 0-4.05 4.79c-1.48 9.57-3.32 19.52-4.79 29.1-.74 4.41-1.84 9.2-2.58 13.98-1.1 0-2.58 0-3.31-.36l-14-1.84c-4.41-.37-5.89.73-6.62 4.78a5.28 5.28 0 0 0 3.68 5.9 35.53 35.53 0 0 0 18.41 4.05v1.47c-1.84 11.05-3.68 21.73-5.52 32.77-.37 1.84-.37 3.69-.37 5.53 0 2.57 2.2 4.05 4.42 4.78 2.2.74 4.42 0 6.26-1.47 2.94-3.31 4.79-7.36 4.79-11.78 0-.37-.37-.74-.37-.74-1.48-1.47-2.21-3.68-1.48-5.52 1.85-8.47 3.69-17.31 5.53-25.78.37-.74.74-1.47 1.84-1.84 5.52-1.84 11.05-3.32 16.57-5.16 0 .74.37 1.47.37 2.21.74 6.26.74 12.52 1.84 18.41.74 3.69 1.47 7.37 2.95 11.05 1.1 2.58 3.68 2.58 6.26.37 2.2-2.2 3.31-5.16 2.58-8.1-1.11-9.2-1.48-18.41-1.85-27.62ZM212.9 29.83a46.95 46.95 0 0 0-14.35 0 55.55 55.55 0 0 0-21.36 6.63 10.33 10.33 0 0 0-5.9 8.47c-.36 2.94 1.11 3.68 4.42 2.58 1.1-.37 2.21-1.11 3.69-1.48 0 .74 0 1.48-.37 1.84-1.1 4.8-1.47 9.21-5.9 13.26-1.1 1.1-1.1 3.68-1.1 5.52 0 1.48 0 2.58.37 4.06a99.85 99.85 0 0 1-8.1 2.57c-4.05.74-5.9-.37-6.26-3.68a71.09 71.09 0 0 1 0-12.52 53.63 53.63 0 0 0 0-18.78 5.1 5.1 0 0 0-4.79-4.05c-2.58 0-4.79 1.1-5.9 3.31l-17.67 25.41c-.37.74-.73 1.1-1.47 1.84 0-.73 0-1.47.37-2.2 3.68-8.1 7.73-16.21 11.41-23.94a4.8 4.8 0 0 0-1.47-6.63s-.37 0-.37-.37a6.58 6.58 0 0 0-8.1 3.31 11.4 11.4 0 0 0-1.84 3.69c-4.42 11.41-8.84 23.2-13.26 34.98a7.7 7.7 0 0 1-1.47 2.21 22.83 22.83 0 0 1-19.15 5.9c-6.26-.74-7.37-5.16-2.58-9.95 4.79-4.79 8.47-8.47 12.15-13.26 4.8-5.89 8.84-11.78 8.84-19.15-.37-6.26-3.68-8.47-11.05-6.26A33.8 33.8 0 0 0 85.5 46.4a36.41 36.41 0 0 0-6.26 16.2c0 4.8-2.2 9.58-5.9 13.26-1.1 1.1-1.46 2.95-.36 4.05 0 .37.37.37.37.37.74.74 2.58.74 3.68.74l.37-.74a30.72 30.72 0 0 1 2.95 4.42c2.94 5.52 8.47 7 15.46 5.9a255.65 255.65 0 0 0 15.84-4.06c0 .37.37.74.37.74.73 3.31 4.78 5.15 8.47 1.47a34.41 34.41 0 0 0 5.89-6.63c5.89-8.1 11.41-16.2 17.3-24.3 1.11-1.1 1.85-2.21 2.95-3.32l.74.37c0 1.1 0 2.21-.37 3.31a44.25 44.25 0 0 0-1.47 18.42c1.1 5.52 4.42 8.47 11.05 8.1a68.4 68.4 0 0 0 12.52-2.21c0 1.1-.37 2.58-.37 3.68 0 1.84 1.1 3.32 2.94 3.32h.37a4.2 4.2 0 0 0 4.42-2.21l2.21-4.42c1.47-4.05 2.58-8.1 3.68-12.15l3.32 1.1c4.42 2.21 8.47 5.16 11.05 9.2 1.84 2.22 3.68 4.43 6.26 5.9 1.47.74 4.05-.37 5.89-.37 0-1.47.73-3.31 0-4.79a155.56 155.56 0 0 0-8.47-12.89c-2.58-2.2-5.16-4.42-8.1-5.89 1.1-.37 2.2-1.1 3.31-1.84 5.9-3.68 11.78-7 16.94-11.05a24.02 24.02 0 0 0 5.9-7.73c4.41-6.63 1.83-11.42-5.53-12.52ZM87.34 65.18c3.32-10.68 8.47-21.73 14.36-21.36 0 1.48-.73 2.95-1.1 4.05-4.05 5.9-8.47 11.42-12.52 17.31h-.74Zm120.42-22.46a536.49 536.49 0 0 1-15.1 11.05c-1.47 1.1-3.31 1.84-4.78 2.57 1.47-5.15 2.57-9.57 3.68-14 .37-.73.74-1.46 1.47-1.46 4.42-.37 9.2-1.1 13.63-1.1 2.94-.74 3.31 1.1 1.1 2.94Zm92.06-28.36c-.74-2.94-2.95-3.68-7.74-2.58-5.89 1.1-9.57 3.69-10.3 7.74-.74 4.05 2.2 6.26 6.99 5.15 2.2-.73 4.05-1.47 6.26-2.2 4.05-2.22 5.52-5.16 4.79-8.1ZM286.93 31.3a7.55 7.55 0 0 0-7 4.79A2525.78 2525.78 0 0 1 270 72.9V81c-.37 1.85 1.1 3.69 3.31 4.06h1.48a5.95 5.95 0 0 0 5.89-5.16c1.84-8.47 4.05-16.94 5.89-25.78a299.85 299.85 0 0 0 3.68-17.67c.74-2.95-.73-5.16-3.31-5.16Zm-15.1 3.68c-1.1-5.15-5.9-6.26-11.05-7h-.73a56.8 56.8 0 0 0-30.94 6.64c-3.68 1.47-6.63 4.78-7 8.83-.36 2.95 1.48 3.69 4.42 2.58 1.1-.37 2.21-1.1 4.05-1.84-.73 2.95-1.47 5.52-1.84 8.1a9.95 9.95 0 0 1-3.68 6.26c-1.84 1.84-2.95 4.42-2.2 7 .36 2.2.36 4.42 0 6.26-.38 3.68-1.48 7-2.22 10.68a5.11 5.11 0 0 0 0 3.31 5.36 5.36 0 0 0 3.32 2.21c1.47 0 2.57-.73 3.68-1.84 1.47-1.84 2.2-3.68 2.94-5.89 1.11-3.68 2.21-7 3.32-11.42 3.31 1.48 6.26 3.69 9.2 5.53 3.32 2.94 5.9 6.63 8.84 9.57a7.64 7.64 0 0 0 3.69 2.21 13 13 0 0 0 5.15-1.1c.74-1.1.74-2.58.37-3.69a210.22 210.22 0 0 0-10.31-14.73 36.49 36.49 0 0 0-6.26-4.05 896.76 896.76 0 0 1 19.52-13.25c4.42-2.95 8.47-11.05 7.73-14.37Zm-12.89 5.9c-2.2 1.84-4.79 3.68-7 5.89-3.68 3.68-8.83 4.79-13.62 8.47A880.9 880.9 0 0 0 242 40.88c.37-.74.74-1.1 1.47-1.48 4.8-.36 9.58-1.1 14.37-1.47 2.2-.37 2.57 1.47 1.1 2.95Zm-96.11 57.08a98.93 98.93 0 0 0 65.18 19.51c43.82-4.05 55.97-27.62 55.97-27.62s-45.3 36.83-121.15 8.1Z"/>
</svg>