<?xml version="1.0" encoding="UTF-8" standalone="no"?>
<!DOCTYPE svg PUBLIC "-//W3C//DTD SVG 1.1//EN" "http://www.w3.org/Graphics/SVG/1.1/DTD/svg11.dtd">
<svg fill="currentcolor"  width="100%" height="100%" viewBox="0 0 400 182" version="1.1" xmlns="http://www.w3.org/2000/svg" xmlns:xlink="http://www.w3.org/1999/xlink" xml:space="preserve" xmlns:serif="http://www.serif.com/" style="fill-rule:evenodd;clip-rule:evenodd;stroke-linejoin:round;stroke-miterlimit:2;">
    <g transform="matrix(0.445331,0,0,0.445331,21.816,-8.9099)">
        <g id="Rivalis">
            <g id="g8825">
                <g id="path7792" transform="matrix(1.33333,0,0,-1.33333,0,450)">
                    <path d="M164.68,94.546C163.378,94.546 149.706,91.734 134.296,88.298C53.848,70.357 -1.753,50.398 -33.688,27.996C-38.369,24.712 -37.483,27.946 -32.292,33.089C-7.622,57.528 67.695,86.275 156.438,105.122C175.054,108.816 193.671,112.51 212.287,116.204C311.029,134.389 462.548,150.792 605.415,158.763C635.97,160.467 638.894,160.473 636.082,158.826C634.904,158.136 610.401,155.303 581.631,152.531C454.439,140.276 343.064,126.272 253.577,111.283C201.948,102.635 183.185,98.857 181.649,96.802C175.993,96.05 170.336,95.298 164.68,94.546L164.68,94.546Z" style="fill-rule:nonzero;"/>
                </g>
                <g id="g8681" transform="matrix(1,0,0,1,-133.955,-822.893)">
                    <g transform="matrix(1,0,0,1,84.275,-3.51146)">
                        <g id="g7842">
                            <g id="g7833">
                                <g id="path7824" transform="matrix(1,0,0,1,-723.361,174.871)">
                                    <path d="M1110.32,770.947C1110.32,770.947 1110.32,770.947 1110.32,770.947C1099.63,770.947 1090.83,779.745 1090.83,790.436C1090.84,793.513 1091.56,796.548 1092.96,799.289C1096.89,793.576 1103.39,790.155 1110.32,790.154C1117.25,790.163 1123.74,793.584 1127.66,799.291C1129.07,796.551 1129.81,793.516 1129.81,790.436C1129.81,779.745 1121.02,770.947 1110.32,770.947Z" style="fill-rule:nonzero;"/>
                                </g>
                                <g id="path7826" transform="matrix(1,0,0,1,-723.361,174.871)">
                                    <path d="M1110.32,777.443C1110.32,777.443 1110.32,777.443 1110.32,777.443C1098.67,777.443 1089.08,787.033 1089.08,798.688C1089.09,800.908 1089.44,803.114 1090.14,805.225C1092.78,796.314 1101.03,790.158 1110.32,790.154C1119.63,790.161 1127.88,796.331 1130.51,805.254C1131.21,803.134 1131.56,800.918 1131.57,798.688C1131.57,787.033 1121.98,777.443 1110.32,777.443Z" style="fill-rule:nonzero;"/>
                                </g>
                                <g id="circle7828" transform="matrix(1,0,0,1,-723.361,174.871)">
                                    <path d="M1110.32,783.939C1110.32,783.939 1110.32,783.939 1110.32,783.939C1096.45,783.939 1085.04,795.352 1085.04,809.222C1085.04,809.222 1085.04,809.222 1085.04,809.223C1085.04,823.092 1096.45,834.504 1110.32,834.504C1124.19,834.503 1135.61,823.091 1135.61,809.223C1135.61,795.353 1124.19,783.94 1110.32,783.939ZM1110.32,790.154C1121.88,790.154 1131.39,799.665 1131.39,811.223C1131.39,822.78 1121.88,832.291 1110.32,832.291C1110.32,832.291 1110.32,832.291 1110.32,832.291C1098.77,832.291 1089.25,822.78 1089.25,811.223C1089.25,799.665 1098.77,790.154 1110.32,790.154C1110.32,790.154 1110.32,790.154 1110.32,790.154Z" style="fill-rule:nonzero;"/>
                                </g>
                            </g>
                        </g>
                    </g>
                    <path id="path7844" d="M491.604,1068.02L508.108,1049.06C508.108,1049.06 472.119,994.813 456.138,970.047C450.878,961.894 454.471,951.787 454.471,951.787C448.677,963.024 447.206,964.888 445.253,973.207C444.235,977.544 442.485,982.605 444.551,986.551C459.596,1015.29 491.604,1068.02 491.604,1068.02Z"/>
                    <path id="path7848" d="M450.851,1068.02L434.347,1049.06C434.347,1049.06 470.336,994.813 486.316,970.047C491.577,961.894 487.984,951.787 487.984,951.787C493.778,963.024 495.249,964.888 497.202,973.207C498.22,977.544 499.97,982.605 497.904,986.551C482.859,1015.29 450.851,1068.02 450.851,1068.02Z"/>
                    <path id="path8667" d="M445.292,1061.86L434.347,1049.06C434.347,1049.06 470.336,994.813 486.316,970.047C491.577,961.894 487.984,951.787 487.984,951.787C491.295,957.686 493.061,959.149 494.393,965.482C495.309,969.841 495.054,978.742 492.988,982.688C477.943,1011.43 445.292,1061.86 445.292,1061.86Z" style="fill:white;"/>
                    <path id="path8669" d="M440.171,1055.56L434.347,1049.06C434.347,1049.06 470.336,994.813 486.316,970.047C491.577,961.894 487.984,951.787 487.984,951.787C490.426,956.072 491.699,957.333 492.286,962.673C492.772,967.1 490.489,973.826 488.423,977.772C473.378,1006.51 440.171,1055.56 440.171,1055.56Z"/>
                </g>
                <g id="g7541" transform="matrix(1.0164,0,0,1.0164,-14.8564,-3.66287)">
                    <g id="g5884" transform="matrix(1.57907,0,0,-1.57907,-37.7719,993.296)">
                        <g id="g5886">
                            <g id="g5892" transform="matrix(1,0,0,1,71.778,466.149)">
                                <path id="path5894" d="M0,0C0,0 -2.168,2.889 -2.977,3.4C-3.785,3.911 -4.848,3.703 -4.892,2.637C-4.933,1.57 -4.892,1.83 -4.892,1.83C-4.892,1.83 -6.381,1.059 -6.125,-0.978C-5.87,-3.022 -5.785,-2.851 -5.74,-3.785C-5.699,-4.725 -4.424,-7.147 -3.913,-7.74C-3.402,-8.34 -1.091,-10.969 2.34,-9.273C5.444,-7.74 5.938,-6.444 5.146,-3.873C4.807,-2.763 3.87,-0.77 4.085,0.511C4.085,0.511 5.274,1.319 5.827,3.363C6.381,5.4 6.635,5.488 6.635,5.488C6.635,5.488 6.466,7.318 7.146,8.17C7.827,9.014 8.932,10.162 9.444,11.74C9.953,13.31 10.336,13.74 10.336,13.74C10.336,13.74 11.501,16.228 10.549,16.932C9.74,17.524 8.847,16.206 8.549,15.354C8.251,14.503 8.123,14.036 7.486,13.48C6.847,12.932 5.955,11.355 5.657,10.592C5.359,9.829 4.424,8.548 3.913,8.207C3.403,7.866 3.318,7.829 3.276,7.103C3.233,6.377 3.446,0.637 0,0" style="fill-rule:nonzero;"/>
                            </g>
                        </g>
                    </g>
                    <g id="g5896" transform="matrix(1.57907,0,0,-1.57907,93.2686,228.197)">
                        <path id="path5898" d="M0,0C0,0 -1.155,0.6 -0.441,2.97C0.274,5.336 1.265,6.381 1.65,6.547C2.035,6.712 2.694,6.436 3.026,5.942C3.355,5.446 3.026,5.007 2.915,4.674C2.805,4.347 1.1,0.548 0.824,0.222C0.55,-0.111 0.385,-0.222 0,0" style="fill-rule:nonzero;"/>
                    </g>
                    <g id="g5900" transform="matrix(1.57907,0,0,-1.57907,98.5285,215.105)">
                        <path id="path5902" d="M0,0C0,0 -1.176,0.12 -0.994,0.967C-0.813,1.811 0.061,2.294 0.424,2.294C0.787,2.294 1.511,2.174 1.541,1.328C1.57,0.483 0.967,0.091 0,0" style="fill-rule:nonzero;"/>
                    </g>
                    <g id="g5904" transform="matrix(1.57907,0,0,-1.57907,106.549,194.441)">
                        <path id="path5906" d="M0,0C0,0 -0.431,0.32 -0.228,1.029C-0.022,1.735 -0.067,2.398 -0.067,2.581C-0.067,2.765 0.457,3.861 0.709,4.453C0.961,5.047 3.814,11.35 3.905,11.532C3.998,11.715 4.385,12.628 4.979,12.151C5.572,11.671 5.779,11.51 5.549,10.962C5.322,10.414 5.07,10.23 4.522,8.725C3.976,7.216 2.435,2.776 1.03,0.526C0.572,-0.206 0,0 0,0" style="fill-rule:nonzero;"/>
                    </g>
                    <g id="g5908" transform="matrix(1.57907,0,0,-1.57907,114.73,171.658)">
                        <path id="path5910" d="M0,0C0,0 -0.585,0.352 -0.257,0.937C0.07,1.522 0.867,2.154 0.867,2.154C0.867,2.154 1.45,2.589 1.731,1.896C2.037,1.148 1.989,0.656 1.779,0.422C1.568,0.187 1.333,-0.702 0,0" style="fill-rule:nonzero;"/>
                    </g>
                    <g id="g5912" transform="matrix(1.57907,0,0,-1.57907,116.762,161.863)">
                        <path id="path5914" d="M0,0C0,0 0.187,-1.428 0.68,-1.498C1.17,-1.568 1.966,-0.889 2.435,0.304C2.903,1.498 2.503,2.037 2.2,2.435C1.896,2.833 1.755,2.809 1.474,2.435C1.193,2.059 0.024,1.498 0.046,0.889C0.07,0.281 0,0 0,0" style="fill-rule:nonzero;"/>
                    </g>
                    <g id="g5916" transform="matrix(1.57907,0,0,-1.57907,121.908,155.86)">
                        <path id="path5918" d="M0,0C0,0 -1.181,-0.115 -1.639,0.457C-2.096,1.03 -2.059,1.143 -2.02,2.057C-1.983,2.972 -0.839,7.966 -0.154,10.29C0.533,12.614 0.761,12.919 1.294,13.719C1.828,14.519 2.515,18.102 2.933,19.056C3.351,20.007 3.924,22.294 4.152,23.094C4.381,23.896 5.866,28.012 6.286,29.118C6.705,30.221 6.744,30.451 7.505,29.803C8.471,28.982 8.61,28.849 8.61,28.849C8.61,28.849 8.877,28.621 8.84,28.012C8.801,27.401 8.042,20.13 4.953,13.11C1.765,5.866 0.457,1.448 0,0" style="fill-rule:nonzero;"/>
                    </g>
                    <g id="g5920" transform="matrix(1.57907,0,0,-1.57907,155.645,275.014)">
                        <path id="path5922" d="M0,0C0,0 -0.152,2.585 -2.844,2.8C-5.538,3.014 -6.016,2.867 -6.016,2.867C-6.016,2.867 -6.436,3.126 -6.733,3.459C-7.029,3.792 -7.042,4.577 -6.966,5.51C-6.894,6.429 -6.214,6.429 -6.066,7.207C-5.918,7.985 -5.462,8.347 -5.203,8.57C-4.944,8.792 -4.759,10.244 -3.87,10.199C-3.203,10.154 -2.502,10.199 -2.018,10.636C-1.537,11.081 1.091,13.858 8.421,16.858C8.421,16.858 10.012,17.302 11.123,18.376C11.123,18.376 11.493,18.709 12.195,18.894C12.899,19.079 13.454,19.524 13.528,19.82C13.602,20.117 13.825,20.302 14.121,20.302C14.417,20.302 15.047,20.339 15.491,21.191C15.934,22.042 16.676,22.746 17.415,23.079C18.156,23.412 37.291,31.941 40.848,34.263C41.822,34.896 42.47,35.128 43.061,35.35C43.655,35.571 44.327,36.132 45.038,36.622C45.751,37.111 47.662,38.109 48.018,37.755C48.371,37.398 48.481,36.074 46.903,35.163C45.325,34.252 44.233,34.212 43.616,32.997C42.889,31.56 42.104,31.263 41.905,31.152C41.705,31.041 38.037,29.841 36.926,28.197C36.926,28.197 36.615,27.664 36.082,27.953C35.548,28.242 35.482,28.153 35.482,27.62C35.482,27.086 35.171,26.531 35.193,25.908C35.193,25.908 32.06,26.523 32.58,22.561C32.58,22.561 26.129,17.065 23.552,15.524C21.024,14.006 18.26,12.391 16.974,11.777C16.95,11.762 16.926,11.754 16.904,11.74C16.904,11.74 16.363,11.74 16.243,11.814C16.119,11.888 15.382,12.406 14.769,11.917C14.156,11.421 13.96,10.91 13.69,10.051C13.421,9.192 12.291,7.888 12.095,7.74C11.899,7.592 11.556,7.696 11.334,7.547C11.114,7.399 9.421,5.955 8.857,5.237C8.857,5.237 8.538,5.044 8.316,5.096C8.096,5.14 8.01,5.251 6.722,4.014C5.398,2.733 2.92,-0.193 0,0" style="fill-rule:nonzero;"/>
                    </g>
                    <g id="g5924" transform="matrix(1.57907,0,0,-1.57907,236.146,217.233)">
                        <path id="path5926" d="M0,0C0,0 -0.502,-0.705 -1.13,-0.052C-1.759,0.602 -1.883,1.82 -1.608,2.789C-1.557,2.964 -0.226,3.518 0.102,3.616C0.428,3.718 2.111,4.27 3.618,4.598C5.127,4.923 6.936,6.005 7.438,6.407C7.94,6.809 11.08,7.588 11.384,6.934C11.684,6.281 11.08,5.225 10.277,4.648C9.099,3.801 7.764,2.964 7.11,2.964C6.081,2.964 4.255,3.405 2.137,1.859C0.278,0.502 0,0 0,0" style="fill-rule:nonzero;"/>
                    </g>
                    <g id="g5928" transform="matrix(1.57907,0,0,-1.57907,256.063,206.361)">
                        <path id="path5930" d="M0,0C0,0 -0.752,0.352 -0.174,0.83C0.4,1.308 1.281,2.061 1.281,2.061C1.281,2.061 1.911,2.613 2.435,2.011C2.969,1.407 2.435,0.906 2.435,0.906L1.559,0.15C1.559,0.15 0.704,-0.527 0,0" style="fill-rule:nonzero;"/>
                    </g>
                    <g id="g5932" transform="matrix(1.57907,0,0,-1.57907,262.493,203.107)">
                        <path id="path5934" d="M0,0C0,0 -0.956,0.478 -0.155,1.003C0.955,1.729 0.703,2.059 3.066,2.763C5.422,3.466 6.259,3.97 7.333,4.524C8.414,5.076 10.806,6.055 11.584,6.281C12.361,6.507 14.547,7.035 15.702,7.614C16.858,8.19 16.606,7.562 16.48,7.062C16.354,6.557 15.65,5.603 13.569,5.051C11.48,4.498 11.302,3.742 11.006,3.516C10.702,3.291 8.443,2.035 5.829,1.809C3.214,1.583 1.955,0.702 1.585,0.428C1.207,0.15 0.674,-0.578 0,0" style="fill-rule:nonzero;"/>
                    </g>
                    <g id="g5936" transform="matrix(1.57907,0,0,-1.57907,289.826,191.324)">
                        <path id="path5938" d="M0,0C0,0 -0.578,0.502 0.126,0.804C0.933,1.152 2.385,1.885 3.118,1.985C3.844,2.085 4.815,2.253 4.903,1.759C4.948,1.481 4.57,1.381 3.97,1.055C3.37,0.728 3.215,0.653 2.919,0.678C2.57,0.707 2.015,0.754 1.763,0.452C1.511,0.152 0.452,-0.604 0,0" style="fill-rule:nonzero;"/>
                    </g>
                    <g id="g5940" transform="matrix(1.57907,0,0,-1.57907,-37.7719,993.296)">
                        <g id="g5942">
                            <clipPath id="_clip1">
                                <rect x="65.623" y="360.945" width="233.12" height="253.314"/>
                            </clipPath>
                            <g clip-path="url(#_clip1)">
                                <g id="g5948" transform="matrix(1,0,0,1,170.937,529.969)">
                                    <path id="path5950" d="M0,0C-0.182,-2.142 -1.342,-8.916 -2.837,-12.047C-3.926,-14.328 -5.055,-15.787 -5.444,-16.407C-5.831,-17.026 -8.247,-20.89 -8.666,-21.529C-9.084,-22.17 -11.227,-25.099 -13.073,-26.332C-13.073,-26.332 -13.467,-26.751 -13.615,-26.232C-13.764,-25.716 -14.651,-24.905 -14.773,-21.283C-14.895,-17.663 -14.847,-15.497 -14.747,-14.461C-14.651,-13.426 -14.93,-9.647 -14.93,-9.647C-14.93,-9.647 -14.952,-9.214 -14.184,-8.058C-13.352,-6.814 -10.634,-5.164 -10.686,-1.926C-10.686,-1.926 -10.318,-1.779 -10.086,-1.935C-9.853,-2.09 -9.388,-1.961 -9.132,-1.883C-8.873,-1.807 -8.77,-1.444 -8.616,-1.135C-8.46,-0.826 -7.997,-0.568 -7.403,-0.052C-6.809,0.465 -6.553,0.902 -6.629,1.058C-6.707,1.211 -6.938,1.496 -6.783,1.676C-6.629,1.857 -6.164,1.65 -5.701,1.857C-5.237,2.063 -4.229,2.631 -3.844,3.198C-3.457,3.766 -3.198,3.741 -2.992,3.741C-2.785,3.741 -2.011,3.842 -1.779,4.205C-1.548,4.567 -1.109,4.567 -0.8,4.102C-0.491,3.637 0.18,2.141 0,0ZM41.962,81.011C41.962,81.011 40.592,83.922 38.763,83.379C38.763,83.379 38.881,83.066 39.082,82.951C39.281,82.837 39.504,82.066 39.311,81.839C39.111,81.609 37.681,80.896 36.141,82.981C34.6,85.064 33.719,84.122 33.289,83.779C32.86,83.437 31.46,82.324 30.579,80.611C29.697,78.909 28.268,76.9 27.749,74.447C27.749,74.447 27.468,73.789 27.208,73.447C26.949,73.104 24.579,68.794 22.616,62.002C20.646,55.208 20.446,55.893 20.157,54.525C19.876,53.152 18.535,47.446 18.417,46.988C18.305,46.533 16.763,40.424 16.504,39.681C16.249,38.939 14.652,32.204 14.397,30.634C14.137,29.064 12.654,22.072 12.11,19.189C11.569,16.306 9.799,10.31 9.344,9.027C8.886,7.744 7.488,4.518 6.861,2.32C6.233,0.122 5.005,-1.905 5.005,-1.905C5.005,-1.905 4.292,-2.846 4.407,-1.391C4.52,0.065 6.403,9.312 2.352,12.053C-1.702,14.793 -6.638,13.395 -11.49,6.944C-16.341,0.493 -19.554,-5.201 -23.948,-10.41C-23.948,-10.41 -25.514,-11.925 -25.757,-12.756C-25.999,-13.589 -27.005,-15.078 -29.812,-17.609L-30.608,-18.476L-31.475,-18.511C-31.475,-18.511 -31.406,-16.778 -31.267,-15.461C-31.128,-14.143 -30.643,-9.084 -30.401,-8.008C-30.158,-6.934 -30.262,-6.207 -30.469,-5.444C-30.677,-4.681 -30.434,-3.503 -30.019,-2.601C-29.603,-1.7 -28.84,-0.002 -28.84,0.97C-28.84,1.939 -29.43,2.702 -29.188,3.5C-28.945,4.296 -27.42,14.208 -27.212,16.741C-27.005,19.269 -26.694,20.726 -27.766,21.004C-28.84,21.282 -30.573,21.004 -34.593,16.289C-38.613,11.575 -38.37,12.303 -40.311,9.842C-42.251,7.381 -44.747,4.018 -45.405,3.048C-46.064,2.078 -49.493,-2.774 -49.736,-3.122C-49.979,-3.468 -53.861,-8.251 -54.693,-8.39C-55.524,-8.529 -55.247,-6.482 -55.247,-5.616C-55.247,-4.749 -55.039,-0.626 -54.587,1.524C-54.137,3.674 -53.723,7.762 -53.652,10.327C-53.584,12.892 -53.03,21.557 -52.058,26.757C-51.088,31.956 -50.084,37.745 -50.084,38.265C-50.084,38.784 -49.599,47.484 -49.425,48.905C-49.251,50.327 -48.523,56.393 -49.043,58.369C-49.564,60.342 -50.327,61.661 -51.262,61.107C-52.197,60.552 -53.198,60.248 -55.143,58.819C-56.321,57.952 -57.639,58.195 -57.639,58.195C-57.639,58.195 -58.713,57.952 -59.266,58.333C-59.82,58.715 -60.722,57.778 -61.242,57.154C-61.762,56.532 -64.05,54.763 -64.05,45.751C-64.05,45.751 -63.888,45.553 -63.683,45.479C-63.475,45.403 -61.335,43.829 -60.733,42.065C-60.733,42.065 -60.626,41.778 -60.226,41.802C-59.803,41.826 -59.702,41.613 -59.531,41.313C-59.363,41.011 -58.855,40.748 -58.893,40.411C-58.931,40.072 -58.756,39.263 -58.704,38.672C-58.652,38.08 -58.45,36.537 -58.805,36.163C-59.185,35.763 -58.983,35.887 -59.807,35.863C-59.807,35.863 -60.563,36.093 -61.022,35.6C-61.481,35.108 -63.116,34.026 -62.498,32.975C-62.17,32.416 -61.087,32.843 -61.087,32.843C-61.087,32.843 -59.291,33.269 -59.283,32.186C-59.25,27.427 -59.611,24.833 -59.642,23.848C-59.676,22.863 -59.807,22.47 -59.972,22.372C-60.135,22.272 -60.3,22.174 -60.266,20.5C-60.233,18.826 -61.548,5.138 -61.548,5.138C-61.548,5.138 -62.157,0.641 -62.072,-3.2C-62.007,-6.155 -62.992,-7.825 -63.057,-11.275C-63.122,-14.787 -63.779,-18.594 -63.844,-20.268C-63.91,-21.942 -64.96,-27.26 -65.092,-28.967C-65.221,-30.675 -66.24,-34.417 -66.307,-35.139C-66.372,-35.861 -65.846,-36.419 -65.288,-37.141C-64.731,-37.863 -63.581,-39.176 -62.794,-39.307C-62.007,-39.439 -61.548,-39.472 -60.367,-38.092C-59.183,-36.715 -57.181,-34.022 -56.263,-32.052C-55.344,-30.084 -54.654,-29.525 -53.571,-27.358C-52.489,-25.192 -50.684,-22.14 -50.553,-21.911C-50.421,-21.681 -50.486,-20.892 -49.962,-20.629C-49.436,-20.367 -48.812,-19.776 -48.912,-19.481C-49.01,-19.185 -49.271,-18.989 -49.142,-18.726C-49.01,-18.463 -47.894,-18.135 -47.566,-17.38C-47.238,-16.624 -45.662,-12.719 -41.79,-9.041C-41.79,-9.041 -41.133,-8.19 -41.167,-9.173C-41.198,-10.158 -41.061,-21.266 -41.218,-24.951C-41.377,-28.636 -41.849,-34.217 -41.692,-36.796L-41.587,-38.744C-41.587,-38.744 -38.6,-41.214 -35.573,-39.835C-35.573,-39.835 -35.323,-38.416 -34.73,-37.363C-34.136,-36.309 -33.465,-34.622 -33.33,-33.932C-33.33,-33.932 -33.33,-33.778 -33.139,-33.569C-32.949,-33.358 -30.682,-31.382 -29.843,-27.149C-29.403,-24.927 -28.771,-23.375 -28.503,-21.879C-28.23,-20.363 -25.935,-19.368 -25.801,-19.388C-25.668,-19.407 -25.131,-21.19 -25.113,-22.072C-25.092,-22.999 -25.092,-25.96 -23.1,-30.158C-22.428,-31.576 -20.111,-35.963 -15.073,-38.033C-15.073,-38.033 -14.556,-38.25 -13.806,-38.033C-13.078,-37.822 -9.236,-36.172 -6.829,-31.556C-6.829,-31.556 -5.348,-28.425 -4.709,-27.149C-4.07,-25.873 -3.229,-23.709 -3.115,-22.959C-3,-22.207 -2.339,-21.796 -2.066,-21.34C-1.794,-20.885 0.505,-16.533 0.689,-16.011C0.87,-15.487 2.624,-11.227 3.307,-10.702L4.309,-10.658C4.309,-10.658 5.426,-11.682 5.244,-12.752C5.061,-13.825 4.787,-14.711 4.718,-15.258C4.65,-15.806 3.853,-22.911 3.642,-29.376C3.642,-29.376 2.822,-31.834 3.126,-33.019C3.429,-34.202 3.55,-33.778 3.55,-33.778C3.55,-33.778 3.642,-32.776 4.098,-31.53C4.553,-30.288 6.736,-25.855 5.464,-23.701C5.464,-23.701 5.281,-23.366 5.918,-23.033C6.557,-22.698 6.496,-22.09 6.616,-21.789C6.736,-21.485 8.71,-15.535 8.892,-11.195C8.892,-11.195 10.318,-10.375 10.531,-8.28C10.743,-6.186 11.228,-5.64 11.927,-5.549C12.627,-5.457 13.445,-4.457 13.445,-3.151C13.445,-1.846 13.565,-0.57 13.9,0.128C14.234,0.826 14.293,1.919 14.263,2.435C14.263,2.435 14.689,4.652 15.145,7.625C15.6,10.599 16.874,14.91 17.085,15.701C17.298,16.489 18.817,22.863 19.002,25.048C19.002,25.048 19.002,25.687 19.335,26.111C19.668,26.536 19.972,28.508 19.972,29.086C19.972,29.662 19.454,32.697 20.454,34.125C21.453,35.551 21.579,36.491 21.794,37.341C22.002,38.191 25.068,50.94 25.312,51.821C25.557,52.701 26.801,56.921 26.979,57.922C26.979,57.922 28.134,58.559 28.105,59.348C28.075,60.137 27.89,60.502 27.742,61.048C27.586,61.594 27.497,62.263 27.742,62.202C27.979,62.14 28.408,61.898 28.408,61.898C28.408,61.898 28.771,62.324 29.045,63.235C29.319,64.144 30.771,68.031 31.201,69.912C31.623,71.793 32.534,75.073 34.808,78.411C34.808,78.411 37.756,76.043 38.089,70.216C38.089,70.216 38.237,68.971 37.785,68.881C37.785,68.881 37.667,68.681 37.704,67.931C37.733,67.181 38.681,58.685 33.089,45.685C29.534,37.421 28.32,35.763 27.72,34.351C27.72,34.351 24.483,27.764 23.705,25.457C23.705,25.457 23.535,25.028 23.601,24.713C23.661,24.4 23.661,23.207 23.098,22.735C22.535,22.266 21.809,20.885 21.846,20.383C21.876,19.88 21.935,19.535 22.187,19.504C22.439,19.472 22.69,20.32 23.224,20.791C23.757,21.261 23.727,21.104 24.349,21.387C24.979,21.668 25.579,22.987 25.734,24.055C25.89,25.122 25.772,27.729 27.171,28.116C28.23,28.409 29.208,28.442 29.208,28.442C29.208,28.442 30.156,28.392 30.534,29.616C30.912,30.838 32.341,31.645 33.534,31.541C33.534,31.541 36.556,37.076 37.074,38.421C37.593,39.765 39.392,44.174 40.163,48.016C40.592,50.156 41.333,50.214 41.474,52.212L41.733,57.463C41.733,57.463 43.133,60.291 43.244,63.8C43.363,67.31 44.014,76.785 41.962,81.011" style="fill-rule:nonzero;"/>
                                </g>
                            </g>
                        </g>
                    </g>
                    <g id="g5952" transform="matrix(1.57907,0,0,-1.57907,153.013,296.149)">
                        <path id="path5954" d="M0,0C0,0 -1.25,1.6 0.441,3.592C2.131,5.577 2.477,6.57 2.477,6.57C2.477,6.57 2.776,6.821 3.324,6.918C3.87,7.022 6.503,8.066 8.392,9.555C10.28,11.043 12.069,12.08 12.864,12.554C13.66,13.036 15.25,13.68 16.641,14.376C18.033,15.073 19.324,14.873 19.524,14.873C19.524,14.873 19.672,16.161 20.864,17.109C22.059,18.05 27.971,21.976 32.693,23.672C37.415,25.361 45.564,28.99 47.899,30.627C47.899,30.627 48.471,31.145 49.917,31.664C49.917,31.664 51.676,32.901 52.313,33.441C52.956,33.975 54.023,34.285 54.361,34.056C54.621,33.878 54.093,32.96 53.845,32.634C53.597,32.301 52.645,31.493 52.645,31.493C52.645,31.493 51.943,31.664 51.55,30.879C51.158,30.086 49.112,28.605 48.266,28.064C47.418,27.531 44.757,26.457 43.433,24.864C43.433,24.864 41.514,25.079 41.631,24.22C41.688,23.805 42.003,23.82 41.772,22.635C41.772,22.635 41.627,22.368 40.818,22.405C40.009,22.45 39.455,22.524 39.418,22.05C39.378,21.576 39.181,21.265 39.141,20.946C39.102,20.635 39.12,20.02 39.279,19.961C39.437,19.902 39.263,19.406 38.655,18.991C38.05,18.569 34.832,15.606 33.617,14.717C32.404,13.828 29.823,12.065 28.602,11.495C27.157,10.821 25.919,9.495 22.677,8.673C22.677,8.673 21.674,8.629 21.44,8.673C21.44,8.673 20.135,6.392 18.713,5.155C17.193,3.829 15.75,3.289 14.606,2.052C13.464,0.815 9.171,-2.918 7.631,-3.274C7.631,-3.274 6.347,-3.178 6.068,-2.222C5.788,-1.267 5.647,0.067 4.25,-0.052C2.848,-0.163 1.166,-0.763 0,0" style="fill-rule:nonzero;"/>
                    </g>
                    <g id="g5956" transform="matrix(1.57907,0,0,-1.57907,241.567,242.525)">
                        <path id="path5958" d="M0,0C0,0 0.714,-1.067 1.098,-0.918C1.903,-0.608 2.059,0.133 2.776,0.874C3.594,1.711 4.029,1.992 6.177,2.348C8.288,2.703 10.399,2.815 12.134,4.681C13.712,6.377 11.482,6.133 11.482,6.133C11.482,6.133 7.836,5.103 3.827,3.133C3.827,3.133 2.783,2.503 1.5,2.578C0.246,2.644 -0.222,1.926 -0.291,1.341C-0.358,0.763 0,0 0,0" style="fill-rule:nonzero;"/>
                    </g>
                    <g id="g5960" transform="matrix(1.57907,0,0,-1.57907,264.972,230.7)">
                        <path id="path5962" d="M0,0C0,0 -0.918,-0.726 -0.644,-1.007C-0.259,-1.393 0.534,-1.304 1.089,-0.815C1.644,-0.319 1.985,0.252 1.622,0.407C1.022,0.644 0.422,0.466 0,0" style="fill-rule:nonzero;"/>
                    </g>
                    <g id="g5964" transform="matrix(1.57907,0,0,-1.57907,270.494,229.285)">
                        <path id="path5966" d="M0,0C0,0 -0.726,0.341 0.556,0.963C1.837,1.578 5.999,3.459 6.725,4.014C7.451,4.566 8.096,4.674 8.688,4.844C9.288,5.014 12.532,6.316 12.873,6.424C13.214,6.531 14.473,6.995 15.695,6.894C16.717,6.809 16.073,6.766 15.776,6.361C15.48,5.955 14.391,5.314 12.917,4.777C11.443,4.244 9.673,3.585 9.162,2.796C9.162,2.796 9.244,2.37 7.733,2.393C6.214,2.414 3.844,1.193 3.333,0.963C2.822,0.726 0.837,-0.385 0,0" style="fill-rule:nonzero;"/>
                    </g>
                    <g id="g5968" transform="matrix(1.57907,0,0,-1.57907,297.767,217.961)">
                        <path id="path5970" d="M0,0C0,0 -0.044,0.769 0.941,1.324C1.918,1.878 2.496,1.815 3.007,1.794C3.518,1.772 4.948,1.985 4.244,1.517C3.54,1.046 3.222,0.961 2.111,0.704C1,0.448 0.385,0.343 0.252,0.085C0.126,-0.17 0,0 0,0" style="fill-rule:nonzero;"/>
                    </g>
                    <g id="g5972" transform="matrix(1.57907,0,0,-1.57907,-37.7719,993.296)">
                        <g id="g5974">
                            <clipPath id="_clip2">
                                <rect x="65.623" y="360.945" width="233.12" height="253.314"/>
                            </clipPath>
                            <g clip-path="url(#_clip2)">
                                <g id="g5980" transform="matrix(1,0,0,1,166.383,465.535)">
                                    <path id="path5982" d="M0,0C0,0 0.802,0.822 1.085,0.822C1.367,0.822 1.652,0.563 1.768,0.422C1.887,0.282 1.911,0.074 1.793,-0.355C1.674,-0.777 0,-8.74 -0.165,-11.488C-0.328,-14.236 -0.396,-15.22 -0.213,-15.746C0.041,-16.465 1.768,-18.383 1.652,-20.087C1.652,-20.087 2.805,-20.176 2.946,-19.968C3.087,-19.753 3.126,-19.739 3.442,-19.894C3.629,-19.99 3.866,-19.939 3.842,-20.553C3.818,-21.168 3.607,-24.375 3.064,-26.072C2.522,-27.767 1.815,-30.412 1.602,-31.915C1.391,-33.426 0.85,-35.404 0.591,-37.218C0.331,-39.033 0.072,-41.366 -1.296,-43.418L-2.12,-43.47C-2.12,-43.47 -2.427,-43.396 -2.474,-43.611C-2.52,-43.818 -2.379,-44.077 -2.144,-44.196C-1.909,-44.314 -1.624,-44.647 -1.154,-44.714C-0.683,-44.788 -1.013,-45.188 -1.013,-45.188C-1.013,-45.188 -1.602,-46.647 -2.05,-48.514C-2.496,-50.373 -3.629,-53.765 -4.148,-56.15C-4.666,-58.528 -5.679,-62.653 -5.844,-63.527C-6.009,-64.401 -7.61,-71.378 -7.658,-72.934C-7.658,-72.934 -7.845,-73.422 -7.966,-73.548C-8.082,-73.659 -9.308,-74.889 -9.262,-78C-9.214,-81.11 -8.696,-82.362 -8.482,-83.799C-8.271,-85.236 -8.414,-88.139 -8.742,-88.939C-9.073,-89.739 -9.521,-93.606 -9.592,-94.62C-9.662,-95.635 -10.323,-100.249 -11.593,-101.997C-12.867,-103.738 -13.904,-104.612 -14.8,-104.59C-15.695,-104.568 -16.119,-103.812 -16.78,-103.53C-17.439,-103.249 -18.359,-102.753 -18.924,-102.138C-19.491,-101.523 -20.668,-100.42 -21.305,-99.094C-21.94,-97.776 -22.742,-95.657 -22.342,-93.887C-21.94,-92.117 -20.904,-89.08 -19.607,-85.917C-18.311,-82.762 -17.321,-80.17 -17.204,-79.037C-17.085,-77.903 -16.426,-75.052 -16.119,-73.918C-15.811,-72.793 -14.282,-66.519 -14.282,-66.519C-14.282,-66.519 -13.151,-60.342 -13.056,-59.327C-12.962,-58.32 -12.254,-56.594 -11.973,-54.921C-11.688,-53.247 -10.699,-47.565 -10.532,-45.521C-10.369,-43.47 -9.897,-41.248 -9.449,-40.425C-9.003,-39.603 -8.082,-36.7 -7.942,-33.589C-7.801,-30.478 -6.951,-26.708 -6.692,-25.598C-6.435,-24.494 -6.481,-22.583 -5.301,-21.383C-4.124,-20.176 -4.596,-19.968 -4.383,-19.072C-4.17,-18.176 -3.251,-15.465 -3.063,-14.991C-2.874,-14.517 -1.578,-11.458 -1.602,-8.554C-1.624,-5.658 -1.248,-4.407 -0.872,-3.444C-0.495,-2.474 -0.046,-0.755 0,0" style="fill-rule:nonzero;"/>
                                </g>
                            </g>
                        </g>
                    </g>
                </g>
                <g transform="matrix(4.15751,0,0,4.15751,388.043,53.9535)">
                    <path d="M9.938,28.023C9.888,28.023 9.842,28.025 9.797,28.03C9.756,28.033 9.717,28.039 9.677,28.046L5.844,28.046L3.554,28.045L3.554,23.674L9.78,23.674C9.843,23.674 9.891,23.676 9.912,23.678C9.945,23.681 9.978,23.686 10.017,23.693C10.733,23.81 11.039,24.095 11.176,24.725L11.179,24.739L11.182,24.751C11.185,24.755 11.199,24.854 11.198,24.996L11.198,26.909C11.194,27.239 11.101,27.452 10.91,27.631C10.721,27.807 10.403,27.949 9.938,28.023ZM10.631,31.15C11.256,31.151 11.87,30.994 12.458,30.691C13.048,30.388 13.544,29.964 13.937,29.43C14.379,28.812 14.612,28.156 14.611,27.481L14.611,24.472C14.611,23.788 14.481,23.189 14.208,22.685C13.931,22.177 13.471,21.717 12.843,21.286C12.076,20.804 11.198,20.569 10.225,20.569L0.166,20.569L0.166,38.533L3.554,38.533L3.554,31.174L10.609,38.533L15.146,38.533L8.032,31.15L10.631,31.15Z"/>
                    <rect x="18.349" y="20.569" width="3.387" height="17.964"/>
                    <rect x="73.267" y="20.569" width="3.387" height="17.964"/>
                    <path d="M38.316,20.569L38.241,20.757L32.907,34.014L27.55,20.569L23.929,20.569L30.584,37.074C30.825,37.658 31.116,38.094 31.495,38.363C31.874,38.626 32.36,38.742 32.933,38.743C33.512,38.742 34.004,38.627 34.387,38.364C34.774,38.094 35.06,37.655 35.283,37.069L41.935,20.569L38.316,20.569Z"/>
                    <path d="M49.618,24.99L55.125,38.533L58.757,38.533L52.198,22.354C51.979,21.829 51.761,21.432 51.517,21.15C51.275,20.87 50.97,20.669 50.621,20.559C50.267,20.443 49.911,20.383 49.563,20.383C48.469,20.374 47.627,21.107 47.137,22.354L40.564,38.533L44.181,38.533L49.618,24.99Z"/>
                    <path d="M65.083,34.892C64.493,34.297 64.177,33.382 64.176,32.089L64.176,20.519L60.956,20.519L60.956,32.666C60.952,34.391 61.56,35.842 62.758,36.94C63.953,38.042 65.537,38.588 67.448,38.588L70.689,38.588L70.689,35.807L67.853,35.807C66.574,35.806 65.672,35.486 65.083,34.892Z"/>
                    <path d="M90.421,29.5L90.407,29.491L90.389,29.483C88.791,28.746 87.176,27.999 85.541,27.237C83.927,26.49 83.241,25.72 83.26,25.085C83.264,24.475 83.442,24.069 83.789,23.767C84.146,23.467 84.644,23.3 85.33,23.299L92.255,23.3L92.255,20.518L85.697,20.518C84.052,20.518 82.686,20.917 81.636,21.736C80.575,22.558 80.035,23.753 80.04,25.211C80.036,26.81 80.991,28.17 82.75,29.232L82.764,29.24L82.78,29.247C84.358,29.983 85.965,30.736 87.601,31.505C89.208,32.262 89.893,33.064 89.882,33.821C89.875,34.515 89.654,34.96 89.192,35.29C88.726,35.618 87.966,35.808 86.909,35.808L79.9,35.808L79.9,38.588L87.397,38.588C89.149,38.588 90.563,38.156 91.589,37.259C92.616,36.368 93.133,35.123 93.129,33.62C93.133,31.976 92.184,30.578 90.421,29.5Z"/>
                    <path d="M55.403,7.073C55.516,9.683 53.696,11.882 51.334,11.985C48.975,12.088 46.969,10.056 46.855,7.446C46.741,4.837 48.562,2.638 50.922,2.535C53.283,2.431 55.288,4.464 55.403,7.073Z"/>
                    <path d="M26.78,7.743C38.244,18.118 58.495,22.789 68.377,13.294C54.619,16.226 41.435,14.985 26.78,7.743Z"/>
                </g>
            </g>
        </g>
    </g>
</svg>
