<svg fill="currentcolor" xmlns="http://www.w3.org/2000/svg" xml:space="preserve" fill-rule="evenodd" stroke-linejoin="round" stroke-miterlimit="2" clip-rule="evenodd" viewBox="0 0 5167 3080">
    <path fill-rule="nonzero" d="M2898.62 2329.56c-1566.4 0-2836.2-7.82-2836.2-17.48 0-9.65 1269.8-17.48 2836.2-17.48 1566.38 0 2209.6 7.83 2209.6 17.48 0 9.66-643.22 17.48-2209.6 17.48ZM218.2 2658.07h-82.85v118.81h82.84c38.53 0 63.82-24.67 63.82-59.4 0-34.81-25.3-59.41-63.82-59.41Zm68.22 371.69-87.87-179.54h-63.2v179.54H47.47v-450.13h176.37c91.66 0 146.04 62.58 146.04 137.85 0 63.2-38.6 102.41-82.15 118.2l100.49 194.08h-101.8Zm301.15 0v-450.13h296.5v78.44H675.44v105.51h177.6v78.44h-177.6v109.3h208.63v78.44h-296.5Zm633.07 3.79c-68.3 0-120.14-14.54-164.38-59.4l56.93-56.94c28.39 28.47 66.99 37.9 108.69 37.9 51.82 0 79.67-19.57 79.67-55.62 0-15.78-4.4-29.08-13.92-37.9-8.82-8.2-18.95-12.61-39.84-15.78l-54.3-7.58c-38.6-5.72-67.07-17.72-87.26-37.29-21.5-21.5-32.26-50.59-32.26-88.57 0-80.22 59.4-136.53 156.8-136.53 61.96 0 106.83 15.16 145.35 52.53l-55.62 55c-28.47-27.24-62.58-31.03-92.28-31.03-46.8 0-69.54 25.92-69.54 56.94 0 11.37 3.79 23.36 13.3 32.17 8.82 8.28 23.36 15.24 41.7 17.72l53.06 7.58c41.15 5.73 67.07 17.1 86.02 34.81 23.98 22.75 34.73 55.62 34.73 95.46 0 87.18-72.64 136.53-166.85 136.53ZM1769 2658.07v371.69h-87.87v-371.7h-117.58v-78.43h323.04v78.44H1769Zm428.78 54.3-56.85 163.76h111.85l-55-163.76Zm104.98 317.39-26.54-79.68h-159.97l-27.15 79.68h-91.67l163.69-450.13h68.92l164.38 450.13h-91.66Zm432.57 3.79c-92.3 0-165.62-62.58-165.62-158.04v-295.88h87.87v292.71c0 51.83 30.4 82.77 77.75 82.77 47.41 0 78.43-30.94 78.43-82.77v-292.71h87.18v295.88c0 95.46-73.33 158.04-165.61 158.04Zm561.05-375.48h-82.85v118.81h82.85c38.53 0 63.82-24.67 63.82-59.4 0-34.81-25.3-59.41-63.82-59.41Zm68.23 371.69-87.88-179.54h-63.2v179.54h-87.87v-450.13h176.37c91.66 0 146.04 62.58 146.04 137.85 0 63.2-38.6 102.41-82.15 118.2l100.49 194.08h-101.8Zm452.29-317.39-56.85 163.76h111.85l-55-163.76Zm104.97 317.39-26.53-79.68h-159.97l-27.15 79.68h-91.66l163.68-450.13h68.92l164.38 450.13h-91.67Zm540.09 0-178.3-276.23v276.23h-87.87v-450.13h78.42l178.25 275.62v-275.62h87.88v450.13h-78.38Zm481.92-371.69v371.69H4856v-371.7h-117.58v-78.43h323.04v78.44h-117.58Z"/>
    <path d="M546.64 1461.27a89.07 89.07 0 0 0-14.5 1.3H319.28l-127.17-.04v-242.77h345.74c3.52 0 6.17.12 7.35.26 1.8.18 3.69.42 5.81.8 39.79 6.5 56.76 22.34 64.4 57.36l.14.71.17.69c.18.22.95 5.73.87 13.64v106.23c-.22 18.3-5.38 30.13-15.95 40.1-10.53 9.79-28.2 17.68-54 21.72Zm38.48 173.7c34.73.03 68.8-8.65 101.45-25.52a233.64 233.64 0 0 0 82.15-69.99c24.54-34.33 37.48-70.79 37.41-108.24v-167.14c0-37.95-7.2-71.22-22.36-99.21-15.35-28.25-40.9-53.78-75.8-77.7-42.6-26.77-91.38-39.85-145.38-39.83H3.96v997.64H192.1v-408.7l391.76 408.7h251.97l-395.06-410.02h144.34Zm428.58-587.63h188.13v997.63h-188.12zm3049.89 0h188.08v997.63h-188.08zm-1941.01 0-4.16 10.41-296.2 736.25-297.53-746.66h-201.04l369.58 916.64c13.4 32.45 29.52 56.58 50.6 71.52 21 14.66 48.02 21.12 79.81 21.14 32.18-.02 59.51-6.44 80.76-21.06 21.49-15.02 37.37-39.41 49.78-71.9l369.43-916.34h-201.03Zm627.68 245.56 305.84 752.08h201.7l-364.31-898.53c-12.13-29.13-24.23-51.18-37.78-66.83a108.31 108.31 0 0 0-49.72-32.8c-19.7-6.46-39.43-9.83-58.83-9.83-60.73-.45-107.45 40.2-134.68 109.46l-365.05 898.53h200.92l301.91-752.08Zm858.85 549.85c-32.73-33.04-50.34-83.81-50.4-155.63v-642.56h-178.8v674.62c-.2 95.74 33.54 176.35 100.1 237.32 66.38 61.22 154.34 91.54 260.43 91.54h180v-154.46h-157.5c-71.04-.05-121.13-17.77-153.83-50.83Zm1407.14-299.39-.79-.51-.96-.47a60387.65 60387.65 0 0 1-269.25-124.76c-89.66-41.42-127.79-84.2-126.7-119.47.24-33.86 10.08-56.43 29.41-73.18 19.75-16.71 47.42-25.95 85.54-26l384.59.03v-154.45h-364.21c-91.34-.05-167.21 22.12-225.5 67.61-58.92 45.65-88.92 112-88.63 192.95-.2 88.84 52.75 164.37 150.5 223.3l.75.44.88.42a77292.16 77292.16 0 0 1 267.7 125.43c89.3 42 127.34 86.55 126.76 128.58-.42 38.52-12.75 63.28-38.38 81.6-25.87 18.2-68.04 28.77-126.75 28.73h-389.25v154.42h416.33c97.3 0 175.8-24.03 232.8-73.8 57.04-49.5 85.75-118.6 85.58-202.1.17-91.33-52.5-168.9-150.42-228.77ZM3071.51 297.87c6.3 144.93-94.82 267.06-225.93 272.77-131.05 5.73-242.44-107.13-248.78-252.07-6.32-144.9 94.81-267.03 225.9-272.74 131.11-5.74 242.48 107.12 248.81 252.04Z"/>
    <path d="M1553.63 374.77c601.72 544.6 1664.7 789.77 2183.36 291.4-722.14 153.9-1414.14 88.73-2183.36-291.4ZM4458.67 470c0-169.94-137.8-307.71-307.73-307.71-169.95 0-307.73 137.77-307.73 307.71 0 161.01 123.72 292.93 281.24 306.39 1.82-77.32-1.86-99.17-1.9-99.52-1.29-11.61-56.77-41.3-83.87-69.68-24.34-25.5 15.36-282.1 23.68-343.78a12.54 12.54 0 0 1 14.6-10.67c6.22 1.05 10.53 6.84 10.35 13.14l-8.69 268.41a12.54 12.54 0 0 0 12.54 12.89h7.26c6.93 0 12.55-5.61 12.55-12.54V265.1c0-6.93 5.61-12.54 12.54-12.54h.35c6.93 0 12.54 5.61 12.54 12.54v270.72c0 6.92 5.61 12.53 12.54 12.53h3.99c6.92 0 12.53-5.6 12.53-12.53V265.1c0-6.93 5.63-12.54 12.54-12.54h.38c6.91 0 12.54 5.61 12.54 12.54v269.54c0 6.93 5.58 12.54 12.54 12.54h7.25c7.04 0 12.7-5.83 12.54-12.89l-8.7-268.4c-.17-6.3 4.16-12.1 10.37-13.15a12.53 12.53 0 0 1 14.58 10.67c8.34 61.67 48.04 318.28 23.67 343.78-27.08 28.39-82.54 58.07-83.83 69.68-.05.35-3.75 22.2-1.92 99.52C4334.92 762.93 4458.67 631 4458.67 470Z"/>
</svg>
