<svg fill="currentcolor" xmlns="http://www.w3.org/2000/svg" xml:space="preserve" fill-rule="evenodd" stroke-linejoin="round" stroke-miterlimit="2" clip-rule="evenodd" viewBox="0 0 1800 210">
  <path fill-rule="nonzero" d="m248.66 33.07-61.4 102.32-90.04-69.26h88.32l19.33-33.06H0l171.8 132.16-27.8 44.19h155l-36-25.71-66.48.53 70.87-118.11h123.4L270.9 146.06l28.1 22.65L500 33.07H281.18L302.11 0h-33.06l-20.39 33.07Zm393.76 144.21h26.09V74.14h36.1V52.63H606.4v21.5h36.02v103.15Zm75.07 0h25.22v-53.04c0-12.1 7.17-20.56 18.32-20.56 11.49 0 17.88 7.7 17.88 20.65v52.95h25.23v-58.13c0-22.38-12.44-36.37-32.49-36.37-13.9 0-23.67 6.4-28.42 17.88h-.52V52.63H717.5v124.65Zm144.96 1.9c26.43 0 39.21-15.63 42.07-29.28l.26-.95h-23.16l-.17.52c-1.81 5.18-8.12 10.88-18.49 10.88-12.87 0-20.9-8.64-21.16-23.4h63.75v-7.78c0-28-17.02-46.4-44.14-46.4-27.13 0-44.49 18.84-44.49 48.3v.08c0 29.63 17.2 48.03 45.53 48.03Zm-.61-77.57c10.45 0 17.97 6.65 19.52 19.44h-39.3c1.64-12.53 9.41-19.44 19.78-19.44ZM982 177.28h25.49l22.98-83.53h.51l22.9 83.53h25.48l33.09-124.65h-27.04l-19.78 89.32h-.52l-22.98-89.32h-22.9l-22.97 89.32h-.52l-19.7-89.32H949l33 124.65Zm174.08 1.9c26.42 0 39.21-15.63 42.06-29.28l.26-.95h-23.16l-.17.52c-1.8 5.18-8.12 10.88-18.48 10.88-12.87 0-20.9-8.64-21.17-23.4h63.76v-7.78c0-28-17.02-46.4-44.15-46.4s-44.49 18.84-44.49 48.3v.08c0 29.63 17.2 48.03 45.54 48.03Zm-.62-77.57c10.46 0 17.98 6.65 19.52 19.44h-39.3c1.65-12.53 9.43-19.44 19.78-19.44ZM1267 179.18c23.31 0 37.74-18.14 37.74-48.2v-.08c0-30.15-14.43-48.12-37.66-48.12-13.22 0-23.5 6.74-28.6 17.97h-.52V52.63h-25.22v124.65h25.22v-15.8h.52c5.01 10.97 15.2 17.7 28.51 17.7Zm-8.38-20.9c-12.28 0-20.66-10.54-20.66-27.3v-.08c0-16.68 8.47-27.22 20.66-27.22 12.51 0 20.46 10.28 20.46 27.22v.08c0 16.85-7.95 27.3-20.46 27.3Zm96.23 19h26.08v-49.06h50.7v-20.65h-50.7V74.14h55.55V52.63h-81.63v124.65Zm134.75 1.9c28 0 45.88-17.96 45.88-48.2v-.17c0-29.98-18.23-48.03-45.96-48.03-27.64 0-45.78 18.22-45.78 48.03v.17c0 30.15 17.7 48.2 45.86 48.2Zm.1-19.78c-12.44 0-20.3-10.28-20.3-28.42v-.17c0-17.88 7.94-28.25 20.12-28.25 12.27 0 20.3 10.37 20.3 28.25v.17c0 18.06-7.86 28.42-20.13 28.42Zm58.73 17.88h25.24v-51.83c0-13.47 7.24-20.9 19.69-20.9 3.62 0 7.08.52 9.15 1.38v-22.2a28.5 28.5 0 0 0-7.26-.95c-10.79 0-18.3 6.65-21.07 18.05h-.51V84.68h-25.24v92.6Zm104.62 32.14c27.81 0 45.18-14.08 45.18-34.73V84.68h-25.22v15.8h-.53c-5-10.8-15.11-17.7-28.16-17.7-23.4 0-37.91 17.53-37.91 47.08v.08c0 28.77 14.34 46.05 37.48 46.05 13.4 0 23.76-6.13 28.6-15.81h.52v14.17c0 10.36-6.92 17.1-19.96 17.1-10.53 0-17.28-3.97-19.27-8.55l-.26-.6H1609l.08.77c2.42 14.86 18.5 26.35 43.98 26.35Zm-.43-51.92c-12.61 0-20.56-10.28-20.56-26.95v-.09c0-16.58 8.04-26.78 20.56-26.78 12.27 0 20.48 10.28 20.48 26.78v.09c0 16.58-8.13 26.95-20.48 26.95Zm104.27 21.68c26.44 0 39.21-15.63 42.06-29.28l.26-.95h-23.15l-.17.52c-1.82 5.18-8.12 10.88-18.49 10.88-12.87 0-20.9-8.64-21.17-23.4H1800v-7.78c0-28-17.02-46.4-44.14-46.4s-44.5 18.84-44.5 48.3v.08c0 29.63 17.2 48.03 45.54 48.03Zm-.6-77.57c10.45 0 17.96 6.65 19.52 19.44h-39.3c1.63-12.53 9.4-19.44 19.77-19.44Z"/>
</svg>